<?xml version="1.0" encoding="utf-8"?>
<!-- Generator: Adobe Illustrator 23.0.3, SVG Export Plug-In . SVG Version: 6.00 Build 0)  -->
<svg version="1.1" id="Arena1" xmlns="http://www.w3.org/2000/svg" xmlns:xlink="http://www.w3.org/1999/xlink" x="0px" y="0px"
	 viewBox="0 0 720 720" style="enable-background:new 0 0 720 720;" xml:space="preserve">
<style type="text/css">
	.st0{fill:#28A745;}
	.st1{fill:#231F20;}
	.st2{fill:none;stroke:#FFFFFF;stroke-width:9;stroke-miterlimit:10;}
</style>
<path class="st0" d="M702.77,714.39H16.12c-6.6,0-12-5.4-12-12V17.99c0-6.6,5.4-12,12-12h686.66c6.6,0,12,5.4,12,12v684.4
	C714.77,708.99,709.37,714.39,702.77,714.39z"/>
<g>
	<path class="st1" d="M280.15,366.43c-0.77,0-1.2-0.43-1.38-1.2l-2.41-12.56h-15.31l-2.32,12.56c-0.17,0.77-0.6,1.2-1.38,1.2h-9.2
		c-0.95,0-1.38-0.52-1.12-1.46l14.28-66.13c0.17-0.86,0.69-1.2,1.46-1.2h11.95c0.77,0,1.29,0.34,1.46,1.2l14.28,66.13
		c0.17,0.95-0.17,1.46-1.2,1.46H280.15z M268.71,312.68l-5.5,30.01h11.01L268.71,312.68z"/>
	<path class="st1" d="M333.56,331c0,5.76-2.15,9.55-6.28,11.35l5.93,22.53c0.26,1.03-0.26,1.55-1.2,1.55h-8.94
		c-0.86,0-1.29-0.43-1.46-1.2l-5.76-21.84h-5.93v21.67c0,0.86-0.52,1.38-1.38,1.38h-8.94c-0.86,0-1.38-0.52-1.38-1.38V299
		c0-0.86,0.52-1.38,1.38-1.38h21.59c8.08,0,12.38,4.3,12.38,12.38V331z M318.42,332.03c2.24,0,3.44-1.2,3.44-3.44v-16.17
		c0-2.24-1.2-3.44-3.44-3.44h-8.51v23.05H318.42z"/>
	<path class="st1" d="M376.47,307.6c0,0.86-0.34,1.46-1.38,1.46h-21.5v17.2h16.43c0.86,0,1.38,0.52,1.38,1.46v8.51
		c0,0.95-0.52,1.46-1.38,1.46h-16.43v17.37h21.5c1.03,0,1.38,0.43,1.38,1.38v8.6c0,0.86-0.34,1.38-1.38,1.38h-31.65
		c-0.77,0-1.29-0.52-1.29-1.38V299c0-0.86,0.52-1.38,1.29-1.38h31.65c1.03,0,1.38,0.52,1.38,1.38V307.6z"/>
	<path class="st1" d="M420.41,297.63c0.86,0,1.38,0.52,1.38,1.38v66.05c0,0.86-0.52,1.38-1.38,1.38h-8.51
		c-0.77,0-1.29-0.34-1.55-1.12l-13.16-36.72h-0.43v36.46c0,0.86-0.43,1.38-1.38,1.38h-8.94c-0.86,0-1.38-0.52-1.38-1.38V299
		c0-0.86,0.52-1.38,1.38-1.38h8.51c0.77,0,1.29,0.34,1.55,1.12l13.07,36.55h0.52V299c0-0.86,0.43-1.38,1.38-1.38H420.41z"/>
	<path class="st1" d="M462.72,366.43c-0.77,0-1.2-0.43-1.38-1.2l-2.41-12.56h-15.31l-2.32,12.56c-0.17,0.77-0.6,1.2-1.38,1.2h-9.2
		c-0.95,0-1.38-0.52-1.12-1.46l14.28-66.13c0.17-0.86,0.69-1.2,1.46-1.2h11.95c0.77,0,1.29,0.34,1.46,1.2l14.28,66.13
		c0.17,0.95-0.17,1.46-1.2,1.46H462.72z M451.29,312.68l-5.5,30.01h11.01L451.29,312.68z"/>
	<path class="st1" d="M298.68,393.01c0-8.08,4.3-12.38,12.38-12.38h9.63c8.08,0,12.38,4.3,12.38,12.38v44.03
		c0,8.08-4.3,12.38-12.38,12.38h-9.63c-8.08,0-12.38-4.3-12.38-12.38V393.01z M318.55,438.33c2.24,0,3.44-1.12,3.44-3.44v-39.73
		c0-2.24-1.2-3.44-3.44-3.44h-4.99c-2.24,0-3.44,1.2-3.44,3.44v39.73c0,2.32,1.2,3.44,3.44,3.44H318.55z"/>
	<path class="st1" d="M377.03,380.63c0.86,0,1.38,0.52,1.38,1.38v66.05c0,0.86-0.52,1.38-1.38,1.38h-8.51
		c-0.77,0-1.29-0.34-1.55-1.12l-13.16-36.72h-0.43v36.46c0,0.86-0.43,1.38-1.38,1.38h-8.94c-0.86,0-1.38-0.52-1.38-1.38V382
		c0-0.86,0.52-1.38,1.38-1.38h8.51c0.77,0,1.29,0.34,1.55,1.12l13.07,36.55h0.52V382c0-0.86,0.43-1.38,1.38-1.38H377.03z"/>
	<path class="st1" d="M421.32,390.6c0,0.86-0.34,1.46-1.38,1.46h-21.5v17.2h16.43c0.86,0,1.38,0.52,1.38,1.46v8.51
		c0,0.95-0.52,1.46-1.38,1.46h-16.43v17.37h21.5c1.03,0,1.38,0.43,1.38,1.38v8.6c0,0.86-0.34,1.38-1.38,1.38h-31.65
		c-0.77,0-1.29-0.52-1.29-1.38V382c0-0.86,0.52-1.38,1.29-1.38h31.65c1.03,0,1.38,0.52,1.38,1.38V390.6z"/>
</g>
<circle class="st2" cx="360" cy="360" r="133.46"/>
<circle class="st2" cx="360" cy="360" r="305.01"/>
</svg>
