<?xml version="1.0" encoding="utf-8"?>
<!-- Generator: Adobe Illustrator 23.0.3, SVG Export Plug-In . SVG Version: 6.00 Build 0)  -->
<svg version="1.1" id="Layer_1" xmlns="http://www.w3.org/2000/svg" xmlns:xlink="http://www.w3.org/1999/xlink" x="0px" y="0px"
	 viewBox="0 0 347.42 560.12" style="enable-background:new 0 0 347.42 560.12;" xml:space="preserve">
<style type="text/css">
	.st0{fill:#1B75BC;}
</style>
<g id="yCg89E.tif_1_">
	<g>
		<path d="M5.19,465.39c3.05-1.34,6.23-2.45,9.44-3.35c7.57-2.12,15.09-4.32,21.8-8.58c4.64-2.94,9.38-5.75,13.88-8.89
			c3.1-2.17,5.07-5.35,6.08-9.03c0.17-0.6,0.15-1.47-0.18-1.95c-0.72-1.06-1.69-1.95-2.57-2.92c-1.89,0.85-14.71-6.76-16.12-8.92
			c-0.48-0.74-1.01-1.66-0.98-2.47c0.11-2.51,0.08-5.13,0.81-7.48c4.52-14.44,7.41-29.11,7.16-44.31c-0.05-3.1,0.08-6.22,0.38-9.31
			c0.78-8.16,1.79-16.31,2.55-24.47c0.97-10.41,4.57-19.43,12.99-26.11c1.02-0.81,1.94-1.79,2.72-2.83
			c4.04-5.42,8.02-10.89,12-16.35c1.64-2.25,3.07-4.68,4.89-6.78c12.71-14.71,27.27-27.37,43.39-38.16
			c4.27-2.86,7.98-5.96,10.76-10.2c0.9-1.37,1.65-2.82,2.47-4.24c1.63-2.83,2.97-5.89,6.55-6.94c0.58-0.17,0.97-0.99,1.47-1.5
			c1.12-1.13,2.07-2.73,3.43-3.28c2.84-1.14,3.12-3.56,3.05-5.78c-0.03-0.88-2.12-1.71-3.31-2.51c-0.4-0.27-0.98-0.26-1.36-0.54
			c-3.15-2.32-7.01-3.78-8.01-8.41c-0.77-3.55-2.42-6.9-3.76-10.59c-2.97,0.91-5.93,1.56-8.68,2.72c-4.35,1.83-8.81,2.79-13.47,2.12
			c-7.21-1.04-14.19-3.02-20.42-6.86c-2.6-1.6-4.92-3.82-6.95-6.12c-1.85-2.09-1.84-5.91,0.05-7.78c1.7-1.69,1.75-3.51,1.83-5.54
			c0.06-1.4,0.12-2.8,0.3-4.18c0.46-3.54,1.56-6.61,5.73-7.24c0.38-0.06,0.74-0.3,1.21-0.5c-0.13-0.71-0.27-1.34-0.36-1.97
			c-0.57-4.3,2.59-7.62,6.87-7.06c1.6,0.21,3.25,0.68,4.68,1.41c3.13,1.61,6.1,3.53,9.21,5.18c0.69,0.37,1.73,0.38,2.53,0.2
			c2.06-0.48,4.06-1.58,6.11-1.64c2.27-0.06,3.16-1.27,4.43-2.75c2.82-3.27,2.85-6.92,2.36-10.82c-0.52-4.15-1.43-8.33-1.24-12.46
			c0.28-6.2,1.39-12.36,2.11-18.54c0.19-1.6,0.74-3.39,0.25-4.79c-1.93-5.46-2.52-10.97-1.67-16.68c0.27-1.81,0.3-3.65,0.47-5.47
			c0.06-0.69-0.04-1.72,0.36-1.99c1.57-1.09,2.18-2.36,2.23-3.82c4.81-0.36,9.48-1.77,14.2-2.75c0.61-0.13,1.12-0.82,1.09-1.43
			c-0.19-3.98-2.99-6.53-5-9.55v-5.45c0-1.48-1.78-1.81-2.58-0.99c0.61-4.25-0.57-7.97-3.19-8.55c1.78-0.9,1.8-2.08,0.33-2.97
			c-2.08-1.26-2.92-2.79-1.92-5.13c0.07-0.17-0.04-0.41-0.12-1c-0.53,0.72-0.85,1.16-1.21,1.65c-0.17-0.55-0.31-1.01-0.53-1.72
			c-1.01,0.73-1.78,1.28-2.55,1.83c-0.12-0.07-0.24-0.13-0.37-0.2c0.84-1.9,1.67-3.8,2.75-6.27c-1.91,0.7-3.16,1.15-4.4,1.6
			c-0.15-0.17-0.3-0.33-0.44-0.5c1.39-2.02,2.78-4.04,4.4-6.39c-1.85-0.24-3.43-0.44-5.32-0.68c1.29-0.72,2.26-1.26,3.71-2.07
			c-1.51-0.38-2.47-0.63-3.91-0.99c1.8-1.13,3.25-2.03,4.95-3.09c-1.07-0.43-1.73-0.7-2.68-1.08c2.18-1.22,4.04-2.25,6.29-3.51
			c-1.27-0.31-1.99-0.49-3.13-0.77c0.95-0.36,1.43-0.55,2.11-0.81c-0.9-0.67-1.63-1.2-3-2.21c2.97-0.22,5.17-0.38,7.86-0.58
			c-1.27-1.17-2.17-2-3.48-3.21c3.39-0.22,6.27-0.41,9.27-0.61c-0.14-1.15-0.24-2.01-0.35-2.93c1.07-0.05,2.02-0.1,3.01-0.15
			c0.09-0.86,0.17-1.56,0.27-2.48c1.51,0.53,2.86,1.11,4.27,1.48c2.74,0.71,1.22-2.36,2.22-2.81c1.2,0.27,2.13,0.49,3.06,0.7
			c0.05-0.34,0.11-0.68,0.16-1.02c2.21,3.52,3.93,0.89,5.81-0.28c1.55,1.07,3.03,2.09,4.57,3.15c1.12-0.66,2.54-1.5,4.45-2.62
			c-0.37,1.24-0.53,1.78-0.66,2.22c2.06-0.34,3.97-0.66,6.27-1.04c-2.1,3.93-1.62,4.48,3.48,4.84v1.17
			c1.05,0.25,2.02,0.48,3.17,0.75c-0.85,1.03-1.49,1.79-2.35,2.83c1.27,0.07,2.07,0.12,2.98,0.18c-0.4,0.95-0.77,1.82-1.16,2.75
			c1.21,0.79,2.3,1.49,3.82,2.48c-0.78,0.4-1.36,0.7-2.02,1.04c0.88,0.74,1.44,1.22,2.24,1.9h-2.98c1.11,0.94,1.83,1.56,2.85,2.42
			c-1.04-0.06-1.69-0.09-2.48-0.14c1.08,2.43,2.05,4.64,3.08,6.82c0.12,0.26,0.59,0.44,0.94,0.52c0.61,2.46,1.74,4.74,2.66,7.12
			c-0.18,2.64-0.36,5.28-0.55,8.12c0.46,0,0.92,0.01,1.38,0.02c0.24,3.37-0.8,6.58-2.21,9.61c-2.51,1.84-3.9,4.52-4.34,7.58
			c-0.13,0.27-0.16,0.59-0.1,0.89c-0.03,0.3-0.04,0.6-0.05,0.91c-0.02,0.59,0.47,1.34,1.09,1.43c6.68,0.99,12.69-2.57,19.29-2.73
			c0.38-0.01,0.68-0.14,0.91-0.33c10.31,1.29,20.35,6,28.57,12.81c2.22,2.54,4.7,4.85,7.26,7.1c4.16,4.83,7.48,10.26,9.62,16.02
			c0.2,0.55,0.62,0.85,1.08,0.96c0.8,3.84,2.23,7.67,4.41,10.92c0,0.17,0.01,0.34,0.01,0.51c0,0.37,0.12,0.67,0.31,0.9
			c0.04,0.1,0.07,0.2,0.11,0.3c0.72,1.64,1.39,3.3,2.21,4.9c2.05,4,4.16,7.97,6.26,11.95c0.22,0.41,0.42,0.88,0.75,1.18
			c2.21,2,4.47,3.85,7.03,5.49c10.1,6.49,17.23,15.25,19.48,27.49c1.37,7.41,3.12,14.75,4.95,22.06c0.35,1.39,1.67,2.71,2.86,3.67
			c8.11,6.55,14.19,14.14,13.81,25.32c-0.03,0.75,0.34,1.55,0.68,2.26c2.93,6.05,6.06,12.01,8.81,18.15
			c1.89,4.24,0.39,6.94-4.05,8.46c-0.39,0.13-0.88,0.52-0.97,0.89c-1.33,5.03-4.76,8.75-7.89,12.65c-3.24,4.03-5.81,4.69-10.55,2.75
			c-0.53-0.22-1.42-0.4-1.73-0.13c-2.93,2.49-5.91,1.77-9,0.42c-2.6-1.14-5.12-1.23-7.82,0.07c-1.13,0.54-2.9,0.34-4.17-0.11
			c-3.45-1.23-6.73-2.93-10.18-4.14c-2.18-0.76-3.99-1.93-4.68-3.98c-1.42-4.27-2.58-8.64-3.64-13.02
			c-1.14-4.72,0.46-8.72,3.71-12.17c1.3-1.38,2.61-2.75,3.72-4.27c0.52-0.71,0.97-1.88,0.76-2.65c-1.25-4.77-1.33-9.57-0.87-14.44
			c0.1-1.03-0.32-2.22-0.84-3.16c-2.27-4.15-6.5-5.05-10.29-6.6c-0.81-2.22-2.09-4.24-3.85-5.79c-1.92-4.3-1.08-11.66-5.45-14.51
			c-0.46-1.87-0.98-3.73-1.58-5.58c-0.59-1.81-3.45-1.03-2.85,0.79c0.62,1.9,1.15,3.82,1.61,5.75c-0.55,5.83-0.39,11.78-0.26,17.62
			c0.07,2.97,0.17,5.94,0.43,8.9c-1.4,2.56-3.22,4.86-5.54,6.62c-1.11,0.84-0.59,2.47,0.37,2.79c0.05,2.84,1.18,6.31,2.76,7.45
			c2.44,1.77,4.5,3.82,5.31,6.87c1.05,3.95,2.25,7.86,3.24,11.83c2.56,10.22,4.58,20.51,4.65,31.11c0.01,2.33-0.27,4.03-3.3,4.27
			c0.46,1.8,0.8,3.38,1.28,4.92c1.67,5.39,3.8,10.68,5.01,16.17c3.17,14.4,4.96,28.98,4.03,43.78c-0.16,2.58,0.45,4.75,2.19,6.79
			c5.28,6.23,10.05,12.72,8.2,21.69c-0.39,1.88,0.98,2.82,2.23,3.77c3.86,2.91,7.04,6.26,8.81,10.97c1.38,3.65,3.39,7.07,5.23,10.53
			c1.54,2.9,3.3,5.67,4.85,8.57c7.5,14.06,14.67,28.26,19.19,43.63c0.29,0.99,1.44,1.7,2.08,2.62c1.14,1.63,2.79,3.18,3.18,4.99
			c0.91,4.23,1.23,8.59,1.72,12.9c0.1,0.83-0.42,1.85-0.12,2.53c1.54,3.44,3.1,6.82,6.59,8.96c2.12,1.31,4.39,2.98,5.56,5.07
			c2.22,3.96,5.32,7.03,8.37,10.23c3.55,3.72,5.65,8.15,5.13,13.39c-0.6,6.01-1.55,11.99-2.26,17.99
			c-0.47,3.98-1.14,7.99-1.06,11.98c0.07,4.02-0.9,7.54-2.78,10.98c-0.92,1.68-1.48,3.56-2.37,5.27c-0.7,1.34-1.39,3.2-2.56,3.69
			c-3.45,1.44-7.11,2.39-10.33,4.39c-0.13,0.08-0.32,0.08-0.48,0.07c-3.89-0.22-7.78-0.47-11.67-0.65
			c-0.61-0.03-1.29,0.14-1.82,0.42c-1.07,0.56-2.07,1.26-3.1,1.9h-3.95c-3.29-1.81-6.58-0.85-9.87,0h-0.99
			c-5.01-1.77-6.66-3.77-6.52-7.93c0.01-0.33-0.08-0.74,0.08-0.97c2.39-3.39,1.67-7.39,2.35-11.13c0.37-2.03,1.11-4.33,2.46-5.8
			c4.45-4.86,5.56-10.85,6.49-16.96c0.79-5.19,1.39-10.4,2.11-15.6c1.11-8.02-2.39-14.53-6.73-20.78c-0.14-0.2-0.35-0.56-0.47-0.54
			c-3.05,0.65-21.81,10.14-22.49,10.33c-2.52,0.71-5.26,0.83-7.91,0.79c-0.6-0.01-1.41-1.49-1.72-2.43
			c-1.05-3.18-10.37-16.68-10.97-16.02c-0.73-1.23-4.51-1.76-5.08-2.64c-9.01-13.8-14.1-28.91-15.92-45.31
			c-0.53-4.77-2.37-9.58-4.45-13.97c-3.37-7.11-3.96-14.87-6.19-22.22c-0.79-2.62-1.86-5.19-3.07-7.65
			c-1.52-3.08-3.46-5.96-4.96-9.05c-1.57-3.23-2.17-6.69-1.6-10.31c0.48-3.04-0.26-5.77-1.84-8.45c-7-11.88-13.87-23.83-20.79-35.75
			c-0.28-0.49-0.65-0.93-1.18-1.66c-4.4,2.44-8.95,4.57-13.08,7.33c-11.12,7.44-22.18,14.97-33.01,22.81
			c-5.46,3.95-9.34,9.37-11.99,15.68c-0.58,1.39-2.3,2.47-3.73,3.29c-1.45,0.84-3.18,1.19-5.03,1.84c1.34,3.31-0.13,6.22-0.81,9.32
			c-2.88,13.12-6.33,26.17-6.56,39.73c-0.03,1.99-0.39,3.61-2.14,4.9c-1,0.74-1.59,2.03-2.49,3.24c-0.26-0.16-0.69-0.41-1.11-0.66
			c-1.56,1.94-3.1,3.86-4.62,5.75c-3.36-2.23-5.69,1.44-6.11,0.92c-0.44-0.54-2.98-0.4-3.04,0.21c-0.28,2.58-0.94,5.36-0.3,7.75
			c1.62,5.99,3.72,11.87,5.91,17.68c1.23,3.26,2.38,6.44,2.18,9.99c-0.28,5.05-2.46,8.64-7.4,9.85c-4.57,1.12-9.38,1.62-14.09,1.68
			c-5.82,0.08-11.66-0.5-17.47-0.94c-4.81-0.37-9.4,0.23-14.08,1.57c-9.11,2.61-18.34,3.24-27.56,0.01
			c-1.58-0.55-3.62-0.57-5.24-0.11c-6.57,1.87-10.3,0.61-13.91-5.14l0-3.95C1.72,467.66,3.32,466.22,5.19,465.39z"/>
	</g>
</g>
<path class="st0" d="M147.04,174.94l27.79,6.27l38.35-2.24l23.34-5.37l9.21-0.2c0.15,0.56,0.29,1.12,0.43,1.68
	c-0.53,5.61-0.4,11.33-0.28,16.96l-26.58,11.1l-41.68,3.58l-27.79-5.37l-15.1-8.5l-2.68-27.25L147.04,174.94z"/>
</svg>
