<?xml version="1.0" encoding="utf-8"?>
<!-- Generator: Adobe Illustrator 23.0.3, SVG Export Plug-In . SVG Version: 6.00 Build 0)  -->
<svg version="1.1" id="Layer_1" xmlns="http://www.w3.org/2000/svg" xmlns:xlink="http://www.w3.org/1999/xlink" x="0px" y="0px"
	 viewBox="0 0 691.2 501.61" style="enable-background:new 0 0 691.2 501.61;" xml:space="preserve" width="60px" height="60px">
<style type="text/css">
	.st0{fill-rule:evenodd;clip-rule:evenodd;fill:#010101;}
</style>
<g>
	<path class="st0" d="M688.92,465.39c-1.14,2.86,1.14,7.43,1.71,10.29c0.57,2.29,0,4.57,0.57,6.29c0,1.71,0,2.86-1.71,2.86
		c-1.71,0.57-1.71-0.57-1.71-0.57s-0.57,1.71-2.85,1.71s-1.71-1.14-1.71-1.14s0.57,1.71-1.14,2.29c-2.28,0-2.85-1.14-2.85-1.14
		s0,2.29-1.71,2.29c-2.28,0.57-2.28-2.29-2.28-2.29s1.71,4-2.85,4.57c-4,0.57-2.85-2.86-4.57-5.14c-2.28-2.29-5.71-5.14-6.85-5.71
		c-1.14-1.14-4,0-7.42-2.29c-3.43-2.86-4-6.29-4-6.86c0-0.57-5.71-4-10.28-10.86c-4.57-6.29-5.71-5.14-10.85-10.86
		c-5.14-5.71-12.56-6.86-22.84-21.14c-9.71-14.29-13.13-16.57-25.69-28c-11.99-11.43-9.71-10.86-13.13-13.71
		c-4-2.86-25.12-13.71-25.12-13.71s2.28-0.57-4.57,2.86c-6.85,3.43-20.55,5.71-20.55,5.71s-5.71-10.86-7.42-12
		c-1.71-1.14-52.53-16-52.53-16s-23.98,16-30.83,26.86c-6.85,10.86-22.27,23.43-25.12,26.29c-2.28,3.43-5.71,6.86-7.42,13.14
		c-1.14,6.29-10.28,24.57-11.99,30.86c-1.71,6.29-9.14,14.29-10.28,17.14c-1.14,3.43,0.57,2.86,2.28,5.71
		c1.14,2.86-2.85,2.86-4.57,2.86c-2.28,0-11.42,1.14-17.13,0.57c-6.28-0.57-9.71-3.43-9.71-3.43s-1.71,0-7.99-1.14
		c-6.85-1.14-9.71,1.14-15.99,3.43c-5.71,2.86-10.28,1.14-15.99,3.43c-5.14,1.71-7.99,1.71-9.71-2.29
		c-1.71-4.57,5.14-5.14,5.14-5.14s0-0.57,0-1.71c0-1.14,2.28-1.14,2.28-1.14s0,0,0-1.14c0.57-1.14,4-0.57,4-0.57s-1.14,0-0.57-1.71
		c1.14-1.14,2.28-0.57,2.28-1.14c0.57-0.57,2.28-1.14,3.43-1.14c0.57-0.57-1.14,0.57,4-3.43c5.14-4,14.85-7.43,14.85-7.43
		s0-1.14,0.57-2.29c0.57-0.57,1.71-1.14,5.71-6.29c4-5.71,1.71-8,2.28-10.29c1.14-1.71,1.71-10.86,9.14-26.29
		c7.99-16,6.28-17.71,10.28-26.86c4-8.57,4.57-15.43,8.56-26.86c3.43-12,13.13-39.43,13.13-39.43s-1.71-2.86-7.99-6.86
		c-6.85-4-7.42-3.43-10.28-8c-2.28-4.57,0.57-6.86,9.71-11.43c8.56-5.14,23.41-12,28.55-13.14c4.57-1.14,7.42-1.14,9.71-3.43
		c2.28-2.86,5.71-1.71,7.99-2.29c2.28-0.57,0-1.71,7.42-7.43c7.99-5.71,36.54-24.57,36.54-24.57s-1.14-2.86-3.43-9.14
		c-2.28-5.71,1.71-13.71,2.28-18.29c1.14-4.57,0-14.86,0.57-22.29c0-7.43,1.14-10.29,3.43-20.57c2.28-9.14,2.28-6.29,1.71-10.86
		c0,0-12.56-0.57-17.7-2.29c-5.71-1.71-7.99-7.43-17.13-18.86c-8.56-12-19.98-31.43-19.98-34.29c0-2.86,0.57-8.57,1.14-11.43l0,0
		c-5.14-1.71-11.42-4-20.55-6.86c-43.96-16-42.25-19.43-51.39-21.14c-9.71-1.14-10.85-3.43-14.27-3.43c-2.85-0.57-2.28,2.86-6.28,4
		c-4,0.57-5.71,2.29-7.99,0l-2.85-2.29c-1.71-1.71-5.14,1.14-6.85-3.43c-1.71-5.14,0.57-13.71,0.57-14.86
		c0.57-1.71,9.14-4,15.42-2.86c6.28,1.14,14.85,5.14,18.84,6.86c4,1.71,7.42,2.86,16.56,4c8.56,1.14,38.83,6.29,56.53,9.71
		c18.27,3.43,26.84,12,35.4,12.57c9.14,0.57,33.69,0,33.69,0s-0.57-1.14-0.57-3.43c-0.57-1.71,0-5.71,0-5.71s-1.71,0.57-2.28-0.57
		c-1.14-1.14-2.85-5.14-1.71-6.86c0.57-1.71,5.71-8,5.71-9.71s-1.71-5.71-1.14-8.57c1.14-2.86,4.57-6.86,4.57-6.86
		s3.43-18.29,4-22.86c0.57-5.14,5.14-9.96,18.12-0.73c7.17,5.1,3.2,9.6,27.2,18.4c8.38,3.07,14.63,9.76,14.06,16.62
		c-0.57,6.86-4.57,7.43-4.57,7.43s-0.57,1.14-1.14,4c-0.57,2.86-0.57,5.14-1.14,9.14c-0.57,4-3.43,5.14-4,6.86
		c-0.57,1.71-1.14,10.29-1.14,10.29s8.56,4.57,9.71,7.43c1.14,2.86,4.57,9.71,10.28,17.14c5.71,7.43,0,18.86,1.14,28
		c1.14,8.57,0,20-1.14,29.14c-0.57,8.57-2.28,22.29-2.28,23.43c0,0.57,1.71,6.29,0,9.71c-1.71,3.43,0,8.57,1.71,14.29
		c1.14,5.71-4,9.14-4,9.14s5.71,16,6.85,17.71c0.57,1.71,1.71,1.71,5.14,2.86c3.43,1.14,0.57,9.14,2.85,11.43
		c2.28,1.71,7.42,9.71,6.28,11.43c-1.14,1.71-2.28,6.86-0.57,12c1.71,4.57,5.14,12.57,6.85,20c1.14,7.43,2.28,6.29,2.85,9.71
		c0,3.43-0.57,8,2.85,13.71c4,5.71,5.14,7.43,6.28,12c1.14,4,6.85,12,9.71,15.43c2.28,3.43-5.14,5.14-5.14,5.14s5.71,12,7.99,16
		c2.28,4,7.42,4,10.85,9.71c3.43,5.71,8.56,5.71,19.41,13.14c10.28,7.43,12.56,15.43,16.56,22.29c4,6.29,7.99,14.29,10.28,19.43
		c2.28,4.57,10.28,6.29,16.56,14.29C679.78,450.53,688.92,465.39,688.92,465.39L688.92,465.39z M462.24,115.66
		c-7.42-1.71-7.99-4.57-10.85-8.57c-2.85-4-5.71-9.14-6.85-9.71c-0.57-1.14-14.85-4-14.85-4s-1.71,5.71,1.71,9.14
		c3.43,4,18.84,13.14,20.55,13.71c1.71,0,4.57,0.57,5.14-0.57C457.1,115.09,462.24,115.66,462.24,115.66L462.24,115.66z"/>
	<path id="XMLID_23_" class="st0" d="M0.31,479.14c0,0-0.79-5.54,1.58-7.91c2.37-3.16,5.53-0.79,7.11-5.54
		c1.58-4.75,0-13.45,0-22.94c0.79-9.49,6.32-26.11,10.28-34.81c3.95-8.7,0.79-19.78,3.16-26.11c3.16-5.54,11.86-7.12,13.44-8.7
		c2.37-1.58,10.28-17.4,14.23-22.15c3.95-5.54,3.95-5.54,3.95-5.54s0.79-11.08,7.9-15.82c7.11-5.54,11.07-7.91,12.65-9.49
		c0.79-1.58,9.49-11.08,12.65-16.61c3.95-4.75,9.49-11.87,14.23-15.03c4.74-2.37,7.9-8.7,7.9-8.7l3.95-19.78
		c0,0-5.53-3.96-3.95-13.45c1.58-8.7,1.58-9.49,1.58-9.49s-17.39,0.79-22.92-2.37s-11.86-5.54-12.65-11.08c-0.79-5.54,0-7.12,0-7.12
		l-2.37-1.58c0,0,3.95-12.66,8.69-25.31c5.53-11.87,9.49-16.61,14.23-24.52c4.74-7.12,11.86-20.57,22.92-26.9
		c11.07-5.54,25.29-9.49,33.2-14.24c7.9-4.75,12.65-3.96,12.65-3.96s7.11-9.49,7.11-13.45c0-4.75-1.58-5.54-0.79-11.08
		c1.58-4.75,2.37-7.12,2.37-9.49c0-3.16,1.58-4.75,1.58-4.75s-2.37-4.75-0.79-11.87c3.16-15.82,9.06-33.04,27.66-29.27
		c21.33,4.33,40.53-20.47,35.57,11.08c-1.57,10,4.74,11.87,0.79,17.4c-3.16,5.54,0,10.28,0,10.28s3.95,7.91,3.16,11.87
		c-0.79,2.37-3.16,1.58-4.74,3.16c-0.79,1.58-1.58,2.37-1.58,4.75c0,5.54,3.16,15.82-7.11,14.24c-11.07-1.58-4.74,4.75-5.53,5.54
		c0,0.79,20.55-2.37,26.08-1.58c5.53,0.79,8.69,3.16,18.18,0c9.49-3.16,27.66-2.37,33.2,0c5.53,1.58,4.74,3.96,4.74,3.96l0.79,6.33
		c0,0,6.32-3.96,14.23-3.16c7.9,0.79,15.81,6.33,30.04,7.12c14.23,0.79,26.87,0,29.25-2.37c2.37-1.58,3.95-6.33,5.53-15.03
		c1.58-8.7,2.37-8.7,3.95-13.45c1.58-3.96,0.79-14.24,2.37-14.24c2.37-0.79,3.16,1.58,3.16,2.37c0,0,0-0.79,0.79-0.79
		c1.58,0,1.58,0.79,1.58,0.79c0,0.79,0.79,0,1.58,0c0.79,0,1.58,1.58,1.58,1.58s0-1.58,0.79-0.79c1.58,0.79,1.58,2.37,1.58,2.37
		s0.79,7.12,0.79,14.24c0,7.91,0,7.91,0.79,16.61c1.58,8.7-1.58,15.03-5.53,18.99c-3.16,3.96-7.9,2.37-14.23,3.16
		c-6.32,1.58-14.23,3.16-22.92,4.75c-8.69,1.58-21.34,8.7-39.52,8.7c-18.18,0-21.34-2.37-24.5-1.58
		c-3.95,1.58-10.28,3.16-11.07,3.16c0,0,2.37,8.7,0,9.49c-3.16,0-5.53-0.79-8.69,0c-2.37,0.79-3.16,1.58-7.9,4.75
		c-4.74,2.37-12.65,0.79-18.18,2.37c-5.53,1.58-7.9,6.33-7.9,6.33s-7.11,26.9-7.9,34.81s-1.58,16.61-3.95,22.15
		s-4.74,15.03-4.74,17.4s-3.16,5.54-3.16,5.54s1.58,10.28,0.79,11.87c-0.79,1.58,3.95,0,7.9,2.37c3.95,2.37,4.74,3.16,12.65,3.16
		c7.11,0,26.08,9.49,33.99,13.45c7.9,4.75,15.81,11.08,26.08,14.24c9.49,3.96,11.07,2.37,11.07,3.96c0,1.58,0,5.54,0,5.54
		s17.39,7.12,19.76,9.49c2.37,2.37,4.74,16.61,3.95,22.15c-0.79,5.54,1.58,22.94,3.16,36.39c1.58,13.45,1.58,26.9,1.58,34.81
		c0.79,7.12,2.37,15.82,0.79,18.99c-0.79,3.16-1.58,6.33-1.58,8.7c0,1.58,3.95,7.12,3.95,9.49c0.79,1.58,0.79,3.96,0.79,3.96
		s5.53,1.58,9.49,3.16c3.95,0.79,6.32,0.79,7.11,2.37c0.79,1.58,0,1.58,0,1.58s2.37,0,3.16,0.79c0.79,0.79,0,1.58,0,1.58
		s3.95,0,4.74,1.58c0,1.58,0,1.58,0,1.58s3.16,0,3.16,1.58c0.79,1.58,0,2.37,0,2.37s5.53,1.58,4.74,5.54
		c-0.79,4.75-1.58,4.75-7.9,3.96c-6.32-0.79-6.32,0.79-12.65,0.79c-5.53,0-13.44-4.75-18.18-6.33c-3.95-0.79-11.07-0.79-11.07-0.79
		s-11.07,4.75-17.39,4.75c-7.11,0.79-8.69,0-11.07-0.79c-1.58-0.79-7.11-2.37-9.49-3.16c-3.16-0.79-1.58-1.58-3.95-6.33
		c-1.58-5.54-1.58-3.96-1.58-8.7c0.79-5.54,7.11-18.99,7.9-25.32c1.58-6.33,3.95-10.28,2.37-12.66
		c-2.37-2.37-11.86-18.99-13.44-27.69c-1.58-7.91-4.74-10.28-8.69-12.66c-4.74-3.16-7.9-7.12-8.69-9.49
		c-0.79-1.58-3.95-5.54-7.11-9.49c-2.37-3.16-28.46-9.49-28.46-9.49s-31.62,13.45-46.64,17.4c-15.02,4.75-44.26,8.7-55.33,8.7
		c-10.28,0-24.5-3.96-24.5-3.96s-22.92,10.28-26.08,10.28c-3.16,0.79-4.74-2.37-3.95,4.75c0,7.91,0,10.28-3.95,11.87
		c-3.95,2.37-3.95,15.03-7.9,24.52c-3.95,10.28-3.95,15.03-2.37,20.57c0.79,6.33-0.79,22.94-3.95,28.48
		c-3.16,5.54-3.95,3.16-9.49,6.33s-7.11,0.79-11.86,2.37c-5.53,1.58-7.9,6.33-12.65,8.7c-4.74,3.16-7.11,1.58-8.69,0.79
		c-1.58-1.58,0.79-3.16,0.79-3.16s-2.37,0.79-3.16,0.79c-1.58-0.79-0.79-2.37-0.79-2.37s0,0.79-2.37,0.79
		c-1.58-0.79-0.79-2.37-0.79-2.37s-0.79,1.58-2.37,0.79c-1.58,0-1.58-1.58-1.58-1.58s-0.79,0.79-1.58,0.79
		c-1.58-0.79-2.37-2.37-1.58-4.75c0-2.37,1.58-7.12,1.58-7.12S0.31,480.73,0.31,479.14L0.31,479.14z"/>
</g>
</svg>
