<?xml version="1.0" encoding="utf-8"?>
<!-- Generator: Adobe Illustrator 23.0.3, SVG Export Plug-In . SVG Version: 6.00 Build 0)  -->
<svg version="1.1" id="Layer_1" xmlns="http://www.w3.org/2000/svg" xmlns:xlink="http://www.w3.org/1999/xlink" x="0px" y="0px"
	 viewBox="0 0 113.11 102" style="enable-background:new 0 0 113.11 102;" xml:space="preserve" width="60px" fill="white">
<g>
	<path id="XMLID_19_" class="st0" d="M49.08,94.77c-0.2-0.5,0.1-0.6,0.3-1.5c0.1-1-0.1-4.89-0.1-6.99c0-2.1-0.4-4.69-0.4-5.19
		c-0.1-0.5-0.1-0.7-0.1-1.1c0-0.4,0.1-0.6,0.1-1c0-0.5,0.1-0.6,0.3-0.9c0.2-0.4,0.2-0.9,0.2-1.1c0-0.1,0-0.5,0.1-0.8
		c0.2-0.3-0.8-0.6-0.5-1.7c0.4-1,0.3-2.2,0.3-2.9s0.1-0.5,0.1-1.5c0-1-0.3-1.5-0.4-2.2c-0.1-0.7,0.2-1.9,0.2-2.2
		c0-0.2-0.5-1.3-0.5-3.2c0-1.9,0.3-3.4-0.3-4.99c-0.7-1.7-0.8-2.1-0.9-2.7c-0.1-0.7-0.7-0.6-1.5-1.1c-0.8-0.5-0.4-0.6-1.6-1.2
		c-1.3-0.7-1.3-0.3-2.1-0.6c-0.8-0.3-1.1-1.1-2.49-1.3c-1.3-0.2-1.7-1.4-1.7-1.9c0-0.5,0.1-1.1,0-1.5c-0.1-0.4-0.3-0.5-0.1-1.3
		c0.2-0.8,0.6-1.9,0.7-3.49c0.1-1.6-0.1-2.2,0.2-2.7c0.3-0.6,1.2-1.1,1.2-1.1s0.6-1.2,0.4-1.7c-0.1-0.5-0.8-1.1-0.3-2
		c0.5-0.9,0.5-1,0.3-1.9c-0.2-0.9,0.6-2.9,0.7-3.2c0.2-0.3,0.5-0.6,0.6-0.9c0.1-0.2,0-6.69,1.1-9.19c1.1-2.4,2.2-2.7,2.69-3.1
		c0.6-0.3,1.1-0.8,1.5-1c0.3-0.2,1-0.4,1.2-0.6c0.2-0.2,0.3-1,0.5-1.3c0.2-0.2,0.5,0,0.5,0s0.3-1.3,0.4-1.4c0.1-0.2-0.1-0.9-0.2-0.9
		c-0.1-0.1-0.7,0.2-0.8-0.5c-0.1-0.6-0.3-0.7-0.5-1.4c-0.2-0.6-0.7-0.9-0.3-1.7c0.3-0.7,0.5-0.4,0.5-0.4s0-1,0-1.4
		c-0.2-1.5-0.2-0.7,0.2-2.6c0.55-2.3,2.89-3.22,5.15-3.1c1.03,0.06,2.71,0.12,3.97-0.37c1.04-0.4,0.55,2.53,0.66,3.56
		c0.3,2.2,0.9,1.5,0,4.59c-0.2,0.6,0,0.2,0.3,0.7c0.3,0.5,0.2,1.2-0.1,1.7c-0.3,0.6-0.3,1.1-0.3,1.3c-0.1,0.2-0.7,0.2-0.7,0.2
		s-0.2,1.3-0.6,1.9c-0.4,0.6-1.5,1.3-1.5,1.3s1,1,1.4,1.7c0.5,0.8,0.3,1,1.7,1.3c1.3,0.2,1.8,0.1,2.19,0.3c0.4,0.2,1.1,1.8,1.5,1.9
		c0.4,0.1,0.9,0.1,0.6-0.7c-0.3-0.8-0.1-1.4-0.1-1.4s-0.1-0.4-0.8-0.5c-0.8-0.1-1.1-0.1-1.6,0c-0.5,0.2-1-0.4-0.5-0.8
		c0.4-0.4,0.7-0.3,1.3-0.4c0.6-0.2,0.42-1.43,0.42-2.33c0-0.9-0.63-3.01-0.99-3.94c-0.56-1.48-0.46-1.65,0.14-1.62
		c0.5,0.03,0.63,1.26,0.63,0.9c0-0.28,0.6,1.5,0,0c-0.6-1.4-0.7-2.9-0.5-3c0.3-0.1,0.8-0.36,1.1,0.93c0.3,1.3,0.49,1.68,0.25,0.84
		c-0.39-1.3,0.22-1.69,0.62-1.39c0.4,0.2,0.9,2.38,0.9,2.38c-0.49-2.32-0.26-1.52,0.14-1.62c0.3,0,1.64,3.19,1.94,4.19
		c0.2,1.1,0.25,1.36,0.75,2.46c0.4,1.1,0.3,2.3,0.3,2.3s0.5,0.5,0.8,0.7c0.3,0.3,1,2.4,2.99,3.3c2,0.9,2.49,2.1,2.69,3.3
		s0.9,2.4-0.4,3.4c-1.2,0.9-0.7,0.7-2.1,1.7c-1.4,1.1-2.29,0.6-3.49,0.9c-1.3,0.2-3.59-0.6-4.59,0c-0.9,0.6-1,1.9-1.3,2.7
		c-0.3,0.8-0.6,1-0.7,1.9c-0.2,0.9-0.4,0.9-0.4,1.8c0.1,0.9,0.1,1.3,0.1,1.3s1,1.4,2.29,2.4c1.4,1,3.19,1.7,3.99,2.3
		c0.8,0.7,2,1.2,2.69,0.8c0.6-0.3,1.6-0.5,2.49-0.5c0.9,0,1.9,0.1,2.39-0.1c0.6-0.2,0.7,0.8,0.1,1.2c-0.6,0.4-0.7,0.6-1.9,0.6
		c-1.1,0.1-1.8,0.1-2,0.4c-0.3,0.3-0.4,0.9-0.6,1.2c-0.3,0.3-0.4,0.4-0.4,0.4c0,0.1,0.3,0.6,0.2,0.9c0,0.3,0.2,0.5,0.1,0.7
		c-0.1,0.2-0.4,1.1-0.9,1.3c-0.4,0.1-0.9-0.1-0.8-0.4c0.1-0.2,0-0.2,0-0.2s-0.2-0.4-0.2-0.5c0.1-0.2-0.3-0.5-0.7-0.9
		c-0.3-0.4-0.3-0.9-1.1-1.3c-0.8-0.4-1-0.4-1-0.4s-1.4,1.9-1.8,2c-0.3,0-2.19-1.8-2.79-2.5c-0.7-0.6-2.79-2-2.99-2.1
		c-0.2-0.1-0.4-0.2-0.4-0.2s-0.2,0.7-0.2,0.9c0,0.2-0.4,0.4-0.4,0.4s1.7,2.5,1.9,3.1c0.1,0.5,0.3,1.3,0.2,1.9
		c-0.2,0.5-0.7,1.6-1,2.2c-0.3,0.6-0.9,0.4-0.9,0.4s0.5,1.5,0.6,2.4c0,0.8,0,1.2-0.1,1.9c0,0.7,0,4.59,0,4.59s1.7,2.7,2.39,3.49
		c0.7,0.9,1.4,2.8,2.1,3.3c0.8,0.5,0.4,1.2,0,1.3c-0.5,0.2-0.8-0.2-0.8-0.2s0,0.5-0.3,0.5c-0.3,0-0.7-0.2-0.7-0.2s0,0.4-0.3,0.4
		c-0.4,0-0.5-0.3-0.5-0.3s-0.3,0.4-0.5,0.4c-0.2,0-0.5-0.2-0.5-0.2s0.1,0.3-0.2,0.3c-0.4,0-0.6-0.2-0.8-0.4
		c-0.3-0.3-0.5-0.3-0.5-0.3s-0.1,0.4-0.1,0.9c-0.1,0.4,0-0.1,0,1.2c-0.1,1.3-0.3,1.6-0.4,2.2c-0.1,0.6-0.1,0.7-0.1,1.3
		c0,0.5,0,0.4-0.1,1.2c-0.1,0.7-0.3,1.8-0.6,2.2c-0.2,0.5-0.2,1.1-0.2,1.7c0.1,0.6,0.1,0.2,0,0.9c-0.2,0.8-1.4,5.89-1.5,6.69
		c-0.2,0.8-1.1,5.79-1,6.99c0.2,1.1,2.1,2.5,2.99,3.1c0.8,0.6,2.29,0.6,2.79,1.2c0.5,0.6,0.1,1-0.3,1.1c-0.3,0.1-0.7,0-0.7,0
		s0.2,0.4,0,0.6c-0.2,0.1-0.6-0.1-0.6-0.1s0.2,0.5-0.1,0.6c-0.4,0.1-0.6-0.2-0.6-0.2s0.3,0.4-0.1,0.5c-0.3,0.1-0.6-0.2-0.6-0.2
		s0.2,0.5-0.3,0.5c-0.5-0.1-1.4-1-2.59-1.3c-1.2-0.4-2.89-0.4-3.29-1.6C48.98,96.96,49.38,95.37,49.08,94.77L49.08,94.77z"/>
	<path id="XMLID_2_" class="st0" d="M87.37,95.33c-0.2-0.5,0.1-0.6,0.3-1.5c0.1-1-0.1-4.89-0.1-6.99c0-2.1-0.4-4.69-0.4-5.19
		c-0.1-0.5-0.1-0.7-0.1-1.1c0-0.4,0.1-0.6,0.1-1c0-0.5,0.1-0.6,0.3-0.9c0.2-0.4,0.2-0.9,0.2-1.1c0-0.1,0-0.5,0.1-0.8
		c0.2-0.3-0.8-0.6-0.5-1.7c0.4-1,0.3-2.2,0.3-2.9s0.1-0.5,0.1-1.5c0-1-0.3-1.5-0.4-2.2c-0.1-0.7,0.2-1.9,0.2-2.2
		c0-0.2-0.5-1.3-0.5-3.2c0-1.9,0.3-3.4-0.3-4.99c-0.7-1.7-0.8-2.1-0.9-2.7c-0.1-0.7-0.7-0.6-1.5-1.1c-0.8-0.5-0.4-0.6-1.6-1.2
		c-1.3-0.7-1.3-0.3-2.1-0.6c-0.8-0.3-1.1-1.1-2.49-1.3c-1.3-0.2-1.7-1.4-1.7-1.9c0-0.5,0.1-1.1,0-1.5c-0.1-0.4-0.3-0.5-0.1-1.3
		c0.2-0.8,0.6-1.9,0.7-3.49c0.1-1.6-0.1-2.2,0.2-2.7c0.3-0.6,1.2-1.1,1.2-1.1s0.6-1.2,0.4-1.7c-0.1-0.5-0.8-1.1-0.3-2
		c0.5-0.9,0.5-1,0.3-1.9c-0.2-0.9,0.6-2.9,0.7-3.2c0.2-0.3,0.5-0.6,0.6-0.9c0.1-0.2,0-6.69,1.1-9.19c1.1-2.4,2.2-2.7,2.69-3.1
		c0.6-0.3,1.1-0.8,1.5-1c0.3-0.2,1-0.4,1.2-0.6c0.2-0.2,0.3-1,0.5-1.3c0.2-0.2,0.5,0,0.5,0s0.3-1.3,0.4-1.4c0.1-0.2-0.1-0.9-0.2-0.9
		c-0.1-0.1-0.7,0.2-0.8-0.5c-0.1-0.6-0.3-0.7-0.5-1.4c-0.2-0.6-0.7-0.9-0.3-1.7c0.3-0.7,0.5-0.4,0.5-0.4s0-1,0-1.4
		c-0.2-1.5-0.2-0.7,0.2-2.6c0.55-2.3,2.89-3.22,5.15-3.1c1.03,0.06,2.71,0.12,3.97-0.37c1.04-0.4,0.55,2.53,0.66,3.56
		c0.3,2.2,0.9,1.5,0,4.59c-0.2,0.6,0,0.2,0.3,0.7c0.3,0.5,0.2,1.2-0.1,1.7c-0.3,0.6-0.3,1.1-0.3,1.3c-0.1,0.2-0.7,0.2-0.7,0.2
		s-0.2,1.3-0.6,1.9c-0.4,0.6-1.5,1.3-1.5,1.3s1,1,1.4,1.7c0.5,0.8,0.3,1,1.7,1.3c1.3,0.2,1.8,0.1,2.19,0.3c0.4,0.2,1.1,1.8,1.5,1.9
		c0.4,0.1,0.9,0.1,0.6-0.7c-0.3-0.8-0.1-1.4-0.1-1.4s-0.1-0.4-0.8-0.5c-0.8-0.1-1.1-0.1-1.6,0c-0.5,0.2-1-0.4-0.5-0.8
		c0.4-0.4,0.7-0.3,1.3-0.4c0.6-0.2,0.42-1.43,0.42-2.33c0-0.9-0.63-3.01-0.99-3.94c-0.56-1.48-0.46-1.65,0.14-1.62
		c0.5,0.03,0.63,1.26,0.63,0.9c0-0.28,0.6,1.5,0,0c-0.6-1.4-0.7-2.9-0.5-3c0.3-0.1,0.8-0.36,1.1,0.93c0.3,1.3,0.49,1.68,0.25,0.84
		c-0.39-1.3,0.22-1.69,0.62-1.39c0.4,0.2,0.9,2.38,0.9,2.38c-0.49-2.32-0.26-1.52,0.14-1.62c0.3,0,1.64,3.19,1.94,4.19
		c0.2,1.1,0.25,1.36,0.75,2.46c0.4,1.1,0.3,2.3,0.3,2.3s0.5,0.5,0.8,0.7c0.3,0.3,1,2.4,2.99,3.3c2,0.9,2.49,2.1,2.69,3.3
		c0.2,1.2,0.9,2.4-0.4,3.4c-1.2,0.9-0.7,0.7-2.1,1.7c-1.4,1.1-2.29,0.6-3.49,0.9c-1.3,0.2-3.59-0.6-4.59,0c-0.9,0.6-1,1.9-1.3,2.7
		c-0.3,0.8-0.6,1-0.7,1.9c-0.2,0.9-0.4,0.9-0.4,1.8c0.1,0.9,0.1,1.3,0.1,1.3s1,1.4,2.29,2.4c1.4,1,3.19,1.7,3.99,2.3
		c0.8,0.7,2,1.2,2.69,0.8c0.6-0.3,1.6-0.5,2.49-0.5c0.9,0,1.9,0.1,2.39-0.1c0.6-0.2,0.7,0.8,0.1,1.2c-0.6,0.4-0.7,0.6-1.9,0.6
		c-1.1,0.1-1.8,0.1-2,0.4c-0.3,0.3-0.4,0.9-0.6,1.2c-0.3,0.3-0.4,0.4-0.4,0.4c0,0.1,0.3,0.6,0.2,0.9c0,0.3,0.2,0.5,0.1,0.7
		c-0.1,0.2-0.4,1.1-0.9,1.3c-0.4,0.1-0.9-0.1-0.8-0.4c0.1-0.2,0-0.2,0-0.2s-0.2-0.4-0.2-0.5c0.1-0.2-0.3-0.5-0.7-0.9
		c-0.3-0.4-0.3-0.9-1.1-1.3c-0.8-0.4-1-0.4-1-0.4s-1.4,1.9-1.8,2c-0.3,0-2.19-1.8-2.79-2.5c-0.7-0.6-2.79-2-2.99-2.1
		c-0.2-0.1-0.4-0.2-0.4-0.2s-0.2,0.7-0.2,0.9c0,0.2-0.4,0.4-0.4,0.4s1.7,2.5,1.9,3.1c0.1,0.5,0.3,1.3,0.2,1.9
		c-0.2,0.5-0.7,1.6-1,2.2c-0.3,0.6-0.9,0.4-0.9,0.4s0.5,1.5,0.6,2.4c0,0.8,0,1.2-0.1,1.9c0,0.7,0,4.59,0,4.59s1.7,2.7,2.39,3.49
		c0.7,0.9,1.4,2.8,2.1,3.3c0.8,0.5,0.4,1.2,0,1.3c-0.5,0.2-0.8-0.2-0.8-0.2s0,0.5-0.3,0.5c-0.3,0-0.7-0.2-0.7-0.2s0,0.4-0.3,0.4
		c-0.4,0-0.5-0.3-0.5-0.3s-0.3,0.4-0.5,0.4s-0.5-0.2-0.5-0.2s0.1,0.3-0.2,0.3c-0.4,0-0.6-0.2-0.8-0.4c-0.3-0.3-0.5-0.3-0.5-0.3
		s-0.1,0.4-0.1,0.9c-0.1,0.4,0-0.1,0,1.2c-0.1,1.3-0.3,1.6-0.4,2.2c-0.1,0.6-0.1,0.7-0.1,1.3c0,0.5,0,0.4-0.1,1.2
		c-0.1,0.7-0.3,1.8-0.6,2.2c-0.2,0.5-0.2,1.1-0.2,1.7c0.1,0.6,0.1,0.2,0,0.9c-0.2,0.8-1.4,5.89-1.5,6.69c-0.2,0.8-1.1,5.79-1,6.99
		c0.2,1.1,2.1,2.5,2.99,3.1c0.8,0.6,2.29,0.6,2.79,1.2c0.5,0.6,0.1,1-0.3,1.1c-0.3,0.1-0.7,0-0.7,0s0.2,0.4,0,0.6
		c-0.2,0.1-0.6-0.1-0.6-0.1s0.2,0.5-0.1,0.6c-0.4,0.1-0.6-0.2-0.6-0.2s0.3,0.4-0.1,0.5c-0.3,0.1-0.6-0.2-0.6-0.2s0.2,0.5-0.3,0.5
		c-0.5-0.1-1.4-1-2.59-1.3c-1.2-0.4-2.89-0.4-3.29-1.6C87.27,97.53,87.67,95.93,87.37,95.33L87.37,95.33z"/>
	<path id="XMLID_1_" class="st0" d="M11.16,95.71c-0.2-0.5,0.1-0.6,0.3-1.5c0.1-1-0.1-4.89-0.1-6.99c0-2.1-0.4-4.69-0.4-5.19
		c-0.1-0.5-0.1-0.7-0.1-1.1c0-0.4,0.1-0.6,0.1-1c0-0.5,0.1-0.6,0.3-0.9c0.2-0.4,0.2-0.9,0.2-1.1c0-0.1,0-0.5,0.1-0.8
		c0.2-0.3-0.8-0.6-0.5-1.7c0.4-1,0.3-2.2,0.3-2.9s0.1-0.5,0.1-1.5s-0.3-1.5-0.4-2.2c-0.1-0.7,0.2-1.9,0.2-2.2c0-0.2-0.5-1.3-0.5-3.2
		c0-1.9,0.3-3.4-0.3-4.99c-0.7-1.7-0.8-2.1-0.9-2.7c-0.1-0.7-0.7-0.6-1.5-1.1c-0.8-0.5-0.4-0.6-1.6-1.2c-1.3-0.7-1.3-0.3-2.1-0.6
		c-0.8-0.3-1.1-1.1-2.49-1.3c-1.3-0.2-1.7-1.4-1.7-1.9c0-0.5,0.1-1.1,0-1.5c-0.1-0.4-0.3-0.5-0.1-1.3c0.2-0.8,0.6-1.9,0.7-3.49
		c0.1-1.6-0.1-2.2,0.2-2.7c0.3-0.6,1.2-1.1,1.2-1.1s0.6-1.2,0.4-1.7c-0.1-0.5-0.8-1.1-0.3-2c0.5-0.9,0.5-1,0.3-1.9
		c-0.2-0.9,0.6-2.9,0.7-3.2c0.2-0.3,0.5-0.6,0.6-0.9c0.1-0.2,0-6.69,1.1-9.19c1.1-2.4,2.2-2.7,2.69-3.1c0.6-0.3,1.1-0.8,1.5-1
		c0.3-0.2,1-0.4,1.2-0.6c0.2-0.2,0.3-1,0.5-1.3c0.2-0.2,0.5,0,0.5,0s0.3-1.3,0.4-1.4c0.1-0.2-0.1-0.9-0.2-0.9
		c-0.1-0.1-0.7,0.2-0.8-0.5c-0.1-0.6-0.3-0.7-0.5-1.4c-0.2-0.6-0.7-0.9-0.3-1.7c0.3-0.7,0.5-0.4,0.5-0.4s0-1,0-1.4
		c-0.2-1.5-0.2-0.7,0.2-2.6c0.55-2.3,2.89-3.22,5.15-3.1c1.03,0.06,2.71,0.12,3.97-0.37c1.04-0.4,0.55,2.53,0.66,3.56
		c0.3,2.2,0.9,1.5,0,4.59c-0.2,0.6,0,0.2,0.3,0.7c0.3,0.5,0.2,1.2-0.1,1.7c-0.3,0.6-0.3,1.1-0.3,1.3c-0.1,0.2-0.7,0.2-0.7,0.2
		s-0.2,1.3-0.6,1.9c-0.4,0.6-1.5,1.3-1.5,1.3s1,1,1.4,1.7c0.5,0.8,0.3,1,1.7,1.3c1.3,0.2,1.8,0.1,2.19,0.3c0.4,0.2,1.1,1.8,1.5,1.9
		c0.4,0.1,0.9,0.1,0.6-0.7c-0.3-0.8-0.1-1.4-0.1-1.4s-0.1-0.4-0.8-0.5c-0.8-0.1-1.1-0.1-1.6,0c-0.5,0.2-1-0.4-0.5-0.8
		c0.4-0.4,0.7-0.3,1.3-0.4c0.6-0.2,0.42-1.43,0.42-2.33c0-0.9-0.63-3.01-0.99-3.94C22.1,9.87,22.2,9.69,22.8,9.73
		c0.5,0.03,0.63,1.26,0.63,0.9c0-0.28,0.6,1.5,0,0c-0.6-1.4-0.7-2.9-0.5-3c0.3-0.1,0.8-0.36,1.1,0.93c0.3,1.3,0.49,1.68,0.25,0.84
		c-0.39-1.3,0.22-1.69,0.62-1.39c0.4,0.2,0.9,2.38,0.9,2.38c-0.49-2.32-0.26-1.52,0.14-1.62c0.3,0,1.64,3.19,1.94,4.19
		c0.2,1.1,0.25,1.36,0.75,2.46c0.4,1.1,0.3,2.3,0.3,2.3s0.5,0.5,0.8,0.7c0.3,0.3,1,2.4,2.99,3.3c2,0.9,2.49,2.1,2.69,3.3
		c0.2,1.2,0.9,2.4-0.4,3.4c-1.2,0.9-0.7,0.7-2.1,1.7c-1.4,1.1-2.29,0.6-3.49,0.9c-1.3,0.2-3.59-0.6-4.59,0c-0.9,0.6-1,1.9-1.3,2.7
		c-0.3,0.8-0.6,1-0.7,1.9c-0.2,0.9-0.4,0.9-0.4,1.8c0.1,0.9,0.1,1.3,0.1,1.3s1,1.4,2.29,2.4c1.4,1,3.19,1.7,3.99,2.3
		c0.8,0.7,2,1.2,2.69,0.8c0.6-0.3,1.6-0.5,2.49-0.5s1.9,0.1,2.39-0.1c0.6-0.2,0.7,0.8,0.1,1.2c-0.6,0.4-0.7,0.6-1.9,0.6
		c-1.1,0.1-1.8,0.1-2,0.4c-0.3,0.3-0.4,0.9-0.6,1.2c-0.3,0.3-0.4,0.4-0.4,0.4c0,0.1,0.3,0.6,0.2,0.9c0,0.3,0.2,0.5,0.1,0.7
		c-0.1,0.2-0.4,1.1-0.9,1.3c-0.4,0.1-0.9-0.1-0.8-0.4c0.1-0.2,0-0.2,0-0.2s-0.2-0.4-0.2-0.5c0.1-0.2-0.3-0.5-0.7-0.9
		c-0.3-0.4-0.3-0.9-1.1-1.3c-0.8-0.4-1-0.4-1-0.4s-1.4,1.9-1.8,2c-0.3,0-2.19-1.8-2.79-2.5c-0.7-0.6-2.79-2-2.99-2.1
		c-0.2-0.1-0.4-0.2-0.4-0.2s-0.2,0.7-0.2,0.9c0,0.2-0.4,0.4-0.4,0.4s1.7,2.5,1.9,3.1c0.1,0.5,0.3,1.3,0.2,1.9
		c-0.2,0.5-0.7,1.6-1,2.2c-0.3,0.6-0.9,0.4-0.9,0.4s0.5,1.5,0.6,2.4c0,0.8,0,1.2-0.1,1.9c0,0.7,0,4.59,0,4.59s1.7,2.7,2.39,3.49
		c0.7,0.9,1.4,2.8,2.1,3.3c0.8,0.5,0.4,1.2,0,1.3c-0.5,0.2-0.8-0.2-0.8-0.2s0,0.5-0.3,0.5c-0.3,0-0.7-0.2-0.7-0.2s0,0.4-0.3,0.4
		c-0.4,0-0.5-0.3-0.5-0.3s-0.3,0.4-0.5,0.4c-0.2,0-0.5-0.2-0.5-0.2s0.1,0.3-0.2,0.3c-0.4,0-0.6-0.2-0.8-0.4
		c-0.3-0.3-0.5-0.3-0.5-0.3s-0.1,0.4-0.1,0.9c-0.1,0.4,0-0.1,0,1.2c-0.1,1.3-0.3,1.6-0.4,2.2c-0.1,0.6-0.1,0.7-0.1,1.3
		c0,0.5,0,0.4-0.1,1.2c-0.1,0.7-0.3,1.8-0.6,2.2c-0.2,0.5-0.2,1.1-0.2,1.7c0.1,0.6,0.1,0.2,0,0.9c-0.2,0.8-1.4,5.89-1.5,6.69
		c-0.2,0.8-1.1,5.79-1,6.99c0.2,1.1,2.1,2.5,2.99,3.1c0.8,0.6,2.29,0.6,2.79,1.2s0.1,1-0.3,1.1c-0.3,0.1-0.7,0-0.7,0s0.2,0.4,0,0.6
		c-0.2,0.1-0.6-0.1-0.6-0.1s0.2,0.5-0.1,0.6c-0.4,0.1-0.6-0.2-0.6-0.2s0.3,0.4-0.1,0.5c-0.3,0.1-0.6-0.2-0.6-0.2s0.2,0.5-0.3,0.5
		c-0.5-0.1-1.4-1-2.59-1.3c-1.2-0.4-2.89-0.4-3.29-1.6C11.06,97.9,11.46,96.31,11.16,95.71L11.16,95.71z"/>
</g>
</svg>
