<?xml version="1.0" encoding="utf-8"?>
<!-- Generator: Adobe Illustrator 23.0.4, SVG Export Plug-In . SVG Version: 6.00 Build 0)  -->
<svg version="1.1" id="Layer_1" xmlns="http://www.w3.org/2000/svg" xmlns:xlink="http://www.w3.org/1999/xlink" x="0px" y="0px"
	 viewBox="0 0 1142.77 86.5" style="enable-background:new 0 0 1142.77 86.5;" xml:space="preserve">
<style type="text/css">
	.st0{fill:#F2F2F2;}
	.st1{fill:#007BFF;}
	.st2{fill:#DC3545;}
	.st3{fill:#B3B3B3;}
</style>
<g>
	<path class="st0" d="M246.83,24.04c-1.87-1.52-3.75-2.65-5.62-3.38c-1.87-0.73-3.69-1.1-5.44-1.1c-2.23,0-4.04,0.53-5.44,1.58
		c-1.4,1.05-2.11,2.43-2.11,4.13c0,1.17,0.35,2.14,1.05,2.9c0.7,0.76,1.62,1.42,2.77,1.98c1.14,0.56,2.43,1.04,3.86,1.45
		c1.43,0.41,2.85,0.85,4.26,1.32c5.62,1.87,9.73,4.38,12.34,7.51c2.6,3.13,3.91,7.21,3.91,12.25c0,3.4-0.57,6.47-1.71,9.22
		c-1.14,2.75-2.81,5.11-5,7.07c-2.2,1.96-4.89,3.48-8.08,4.57c-3.19,1.08-6.8,1.62-10.84,1.62c-8.37,0-16.13-2.49-23.27-7.46
		l7.38-13.87c2.58,2.28,5.12,3.98,7.64,5.09c2.52,1.11,5,1.67,7.46,1.67c2.81,0,4.9-0.64,6.28-1.93c1.37-1.29,2.06-2.75,2.06-4.39
		c0-1-0.18-1.86-0.53-2.59c-0.35-0.73-0.94-1.4-1.76-2.02c-0.82-0.61-1.89-1.19-3.2-1.71c-1.32-0.53-2.91-1.11-4.79-1.76
		c-2.23-0.7-4.41-1.48-6.54-2.33c-2.14-0.85-4.04-1.98-5.71-3.38c-1.67-1.4-3.02-3.17-4.04-5.31c-1.02-2.14-1.54-4.84-1.54-8.12
		c0-3.28,0.54-6.25,1.62-8.91c1.08-2.66,2.6-4.95,4.57-6.85c1.96-1.9,4.36-3.38,7.2-4.43c2.84-1.05,6.01-1.58,9.53-1.58
		c3.28,0,6.7,0.45,10.27,1.36c3.57,0.91,6.99,2.24,10.27,4L246.83,24.04z"/>
	<path class="st0" d="M328.31,7.09v66.2H311.1V7.09H328.31z"/>
	<path class="st0" d="M403.3,7.09v51.63h20.63v14.58h-37.84V7.09H403.3z"/>
	<path class="st0" d="M519.99,61.79H495.4l-3.95,11.5H473.1l25.2-66.2h18.79l25.2,66.2h-18.35L519.99,61.79z M515.42,48.71
		l-7.73-22.04l-7.73,22.04H515.42z"/>
	<path class="st0" d="M615.96,21.67v51.63h-17.21V21.67h-14.14V7.09h45.48v14.58H615.96z"/>
</g>
<path class="st0" d="M137.19,12.72c-2.05,0.49-80.65,1.38-90.51,15.02C32.82,46.92,30.1,61.88,25.08,85.5c-0.21,1.01-0.47,2-0.7,3
	c0,0,18.67-40.3,32.1-52.83C72.97,20.27,137.39,13.27,137.19,12.72z"/>
<path class="st1" d="M2.34,13.58c0.14,0.59,0.27,1.19,0.44,1.77c1.4,4.78,6.09,8,10.7,7.35c5.24-0.73,8.88-4.8,9.06-10.12
	c0.16-4.9-3.35-9.37-8.17-10.38C8.95,1.07,3.6,4.81,2.52,10.49c-0.04,0.24-0.12,0.47-0.18,0.7C2.34,11.99,2.34,12.78,2.34,13.58z"/>
<path class="st2" d="M113.41,35.9c0.15,0.56,0.28,1.13,0.45,1.68c1.44,4.56,6.27,7.62,11.02,7c5.39-0.7,9.14-4.58,9.32-9.65
	c0.17-4.67-3.45-8.92-8.41-9.89c-5.58-1.08-11.09,2.48-12.2,7.89c-0.05,0.23-0.12,0.44-0.18,0.67
	C113.41,34.38,113.41,35.14,113.41,35.9z"/>
<path class="st0" d="M29.1,16.71C21.54,26.89,24.49,43.41,0,50.79c22.13,5.4,33.93-21.15,35.7-27.44
	C43.57,7.02,82.96,9.08,83.73,9.05C83.75,8.88,44.75-3.21,29.1,16.71z"/>
<path class="st0" d="M109.58,47.65c6.39,9.73,4.11,24.17,24.53,31.42c-18.33,4.91-28.4-20.4-29.93-26.39
	c-6.02-13.77-17.93-16.2-30.81-17.66C78.68,32.75,101.07,30.64,109.58,47.65z"/>
<path class="st0" d="M11.7,67.37c1.81,0.15,88.98,20.9,79.84-11.28c-5.49-19.31-64.93-11.7-68.63-8.85
	c10.82-0.15,57.63,3.07,55.03,13.14C74.6,73.29,11.66,67.04,11.7,67.37z M91.18,67.6c0.12-0.14,0.24-0.29,0.35-0.44
	c-0.11,0.2-0.22,0.39-0.35,0.58C91.19,67.69,91.19,67.65,91.18,67.6z M90.98,64.79c0.01-0.02,0.02-0.04,0.03-0.05
	c-0.01,0.02-0.02,0.05-0.03,0.07C90.98,64.8,90.98,64.8,90.98,64.79z M77.94,63.48c-0.02,0.01-0.05,0.02-0.07,0.02
	c0.03-0.09,0.07-0.17,0.09-0.26C77.95,63.32,77.95,63.4,77.94,63.48z"/>
<g>
	<path class="st3" d="M741.31,14.76l-6.56,6.26c-3.12-4.57-6.69-6.86-10.72-6.86c-2.92,0-5.33,0.9-7.25,2.7
		c-1.92,1.8-2.87,4.06-2.87,6.77c0,2.17,0.66,4.04,1.97,5.62c0.66,0.74,1.62,1.59,2.89,2.53c1.27,0.94,2.87,1.99,4.78,3.13
		c5.69,3.32,9.49,6.32,11.4,9c1.94,2.72,2.92,6.27,2.92,10.68c0,5.72-1.89,10.35-5.66,13.89c-3.72,3.54-8.62,5.32-14.71,5.32
		c-4.92,0-9.08-1.06-12.48-3.17c-1.71-1.06-3.32-2.44-4.8-4.14c-1.49-1.7-2.92-3.77-4.29-6.2l7.46-5.06
		c2.03,3.57,4.01,6.03,5.96,7.37c1.94,1.34,4.47,2.02,7.59,2.02c3.46,0,6.17-0.91,8.12-2.74s2.94-4.43,2.94-7.8
		c0-2.31-0.71-4.27-2.14-5.87c-0.71-0.83-1.78-1.76-3.19-2.79c-1.42-1.03-3.21-2.19-5.38-3.47c-4.97-2.94-8.45-5.75-10.42-8.4
		c-1.89-2.66-2.83-5.99-2.83-9.99c0-5.34,1.86-9.77,5.57-13.29c3.71-3.54,8.4-5.32,14.06-5.32c3.69,0,6.83,0.74,9.43,2.23
		C735.78,8.66,738.51,11.19,741.31,14.76z"/>
	<path class="st3" d="M799.57,6.32h13.42c5.83,0,10.27,0.97,13.33,2.92c2.51,1.57,4.49,3.79,5.92,6.65c1.43,2.94,2.14,6.04,2.14,9.3
		c0,4.75-1.33,8.92-3.99,12.52c-3.94,5.35-10.16,8.02-18.65,8.02h-7.25l-3.3,26.8h-9.82L799.57,6.32z M808.23,15.45l-2.66,21.56
		h6.39c4.03,0,7.12-1.04,9.28-3.11c2.16-2.07,3.24-5.07,3.24-8.98c0-6.32-4.03-9.48-12.09-9.48H808.23z"/>
	<path class="st3" d="M953.96,38.13c0,7.55-2,14.39-6,20.54c-3.17,4.83-7.32,8.56-12.43,11.19c-5.12,2.63-10.78,3.94-16.98,3.94
		c-9.92,0-18.01-3.16-24.27-9.48c-6.26-6.35-9.39-14.55-9.39-24.61c0-10.03,3.32-18.32,9.95-24.87c6.66-6.57,15.06-9.86,25.21-9.86
		s18.33,3.04,24.57,9.13C950.84,20.18,953.96,28.18,953.96,38.13z M944.1,38.04c0-7.23-2.14-13.02-6.43-17.36
		c-4.29-4.32-10.05-6.47-17.28-6.47c-7.26,0-13.36,2.43-18.31,7.29c-4.89,4.86-7.33,10.93-7.33,18.22c0,7.2,2.27,13.16,6.82,17.88
		c4.54,4.69,10.29,7.03,17.23,7.03c7.23,0,13.25-2.53,18.05-7.59C941.68,52.03,944.1,45.7,944.1,38.04z"/>
	<path class="st3" d="M1032.16,44.6l16.63,27.91h-10.38l-15.69-27.22h-3.56l-3.34,27.22h-9.82l8.15-66.2h12.99
		c4.23,0,7.59,0.39,10.08,1.16c2.46,0.71,4.6,2.03,6.43,3.94c3.46,3.54,5.19,8.12,5.19,13.72
		C1048.84,35.4,1043.28,41.89,1032.16,44.6z M1022.81,15.45l-2.57,21.27h4.5c3.32,0,5.79-0.31,7.42-0.94
		c1.74-0.63,3.2-1.7,4.37-3.22c1.6-2.11,2.4-4.6,2.4-7.46c0-3.34-0.96-5.79-2.89-7.33c-1.93-1.54-4.97-2.31-9.11-2.31H1022.81z"/>
	<path class="st3" d="M1126.52,15.45l-7.03,57.06h-9.82l7.03-57.06h-15.82l1.11-9.13h40.77l-1.11,9.13H1126.52z"/>
</g>
</svg>
