<?xml version="1.0" encoding="utf-8"?>
<!-- Generator: Adobe Illustrator 23.0.4, SVG Export Plug-In . SVG Version: 6.00 Build 0)  -->
<svg version="1.1" xmlns="http://www.w3.org/2000/svg" xmlns:xlink="http://www.w3.org/1999/xlink" x="0px" y="0px"
	 viewBox="0 0 646.71 664" style="enable-background:new 0 0 646.71 664;" xml:space="preserve">
<style type="text/css">
	.st0{fill:#F2F2F2;}
	.st1{fill:#007BFF;}
	.st2{fill:#DC3545;}
	.st3{fill:#B3B3B3;}
</style>
<g id="Layer_2">
</g>
<g id="Layer_1">
	<g>
		<path class="st0" d="M109.62,442.17c-2.26-1.84-4.52-3.2-6.79-4.08c-2.26-0.88-4.45-1.33-6.57-1.33c-2.69,0-4.88,0.64-6.57,1.91
			c-1.7,1.27-2.54,2.93-2.54,4.98c0,1.41,0.42,2.58,1.27,3.5c0.85,0.92,1.96,1.71,3.34,2.39c1.38,0.67,2.93,1.26,4.67,1.75
			c1.73,0.5,3.45,1.03,5.14,1.59c6.79,2.26,11.75,5.28,14.9,9.06c3.14,3.78,4.72,8.71,4.72,14.79c0,4.1-0.69,7.81-2.07,11.13
			c-1.38,3.32-3.39,6.17-6.04,8.53c-2.65,2.37-5.9,4.21-9.75,5.51c-3.85,1.31-8.22,1.96-13.09,1.96c-10.11,0-19.47-3-28.1-9.01
			l8.91-16.75c3.11,2.76,6.18,4.81,9.22,6.15c3.04,1.34,6.04,2.01,9.01,2.01c3.39,0,5.92-0.78,7.58-2.33
			c1.66-1.55,2.49-3.32,2.49-5.3c0-1.2-0.21-2.24-0.64-3.13c-0.42-0.88-1.13-1.7-2.12-2.44c-0.99-0.74-2.28-1.43-3.87-2.07
			c-1.59-0.64-3.52-1.34-5.78-2.12c-2.69-0.85-5.32-1.78-7.9-2.81c-2.58-1.02-4.88-2.38-6.89-4.08c-2.01-1.7-3.64-3.83-4.88-6.42
			c-1.24-2.58-1.86-5.85-1.86-9.81c0-3.96,0.65-7.54,1.96-10.76c1.31-3.22,3.14-5.97,5.51-8.27c2.37-2.3,5.26-4.08,8.69-5.35
			c3.43-1.27,7.26-1.91,11.5-1.91c3.96,0,8.09,0.55,12.4,1.64c4.31,1.1,8.45,2.7,12.4,4.82L109.62,442.17z"/>
		<path class="st0" d="M208.01,421.71v79.94h-20.78v-79.94H208.01z"/>
		<path class="st0" d="M298.55,421.71v62.34h24.92v17.6h-45.7v-79.94H298.55z"/>
		<path class="st0" d="M439.45,487.76h-29.69l-4.77,13.89h-22.16l30.43-79.94h22.69l30.43,79.94h-22.16L439.45,487.76z
			 M433.94,471.96l-9.33-26.61l-9.33,26.61H433.94z"/>
		<path class="st0" d="M555.33,439.31v62.34h-20.78v-62.34h-17.07v-17.6h54.92v17.6H555.33z"/>
	</g>
	<g>
		<path class="st0" d="M596.69,97.51c-8.09,1.94-318.33,5.43-357.27,59.27c-54.74,75.7-65.48,134.78-85.29,228
			c-0.84,3.97-1.84,7.91-2.77,11.86c0,0,73.68-159.08,126.69-208.55C343.18,127.32,597.48,99.67,596.69,97.51z"/>
		<path class="st1" d="M64.39,100.91c0.57,2.33,1.06,4.68,1.73,6.97c5.54,18.88,24.03,31.57,42.24,29.02
			c20.66-2.89,35.04-18.96,35.75-39.95c0.65-19.35-13.21-36.97-32.24-40.96c-21.4-4.49-42.53,10.29-46.77,32.7
			c-0.18,0.93-0.47,1.84-0.71,2.76C64.39,94.6,64.39,97.76,64.39,100.91z"/>
		<path class="st2" d="M502.81,189.01c0.59,2.22,1.09,4.46,1.78,6.64c5.7,17.99,24.74,30.08,43.49,27.65
			c21.28-2.76,36.08-18.07,36.81-38.07c0.67-18.44-13.61-35.23-33.19-39.03c-22.03-4.28-43.79,9.81-48.16,31.16
			c-0.18,0.89-0.48,1.75-0.73,2.63C502.81,183,502.81,186,502.81,189.01z"/>
		<path class="st0" d="M170.01,113.26c-29.86,40.16-18.21,105.38-114.87,134.51c87.34,21.33,133.93-83.48,140.92-108.33
			C227.11,75,382.6,83.15,385.65,83.01C385.72,82.36,231.77,34.62,170.01,113.26z"/>
		<path class="st0" d="M487.69,235.38c25.21,38.4,16.23,95.41,96.83,124.01c-72.36,19.37-112.11-80.53-118.16-104.17
			c-23.76-54.37-70.77-63.97-121.61-69.72C365.72,176.56,454.11,168.23,487.69,235.38z"/>
		<path class="st0" d="M101.33,313.24c7.13,0.58,351.24,82.49,315.14-44.53c-21.65-76.21-256.3-46.17-270.89-34.95
			c42.7-0.61,227.49,12.13,217.24,51.88C349.63,336.6,101.16,311.94,101.33,313.24z M415.07,314.13c0.48-0.57,0.95-1.15,1.4-1.73
			c-0.43,0.77-0.88,1.54-1.37,2.29C415.1,314.5,415.09,314.32,415.07,314.13z M414.26,303.05c0.05-0.07,0.09-0.14,0.14-0.21
			c-0.03,0.09-0.07,0.18-0.11,0.27C414.28,303.09,414.27,303.07,414.26,303.05z M362.79,297.87c-0.09,0.03-0.18,0.06-0.27,0.09
			c0.13-0.34,0.26-0.67,0.37-1.02C362.85,297.25,362.83,297.56,362.79,297.87z"/>
	</g>
	<g>
		<path class="st3" d="M107.5,547.66l-7.6,7.25c-3.61-5.3-7.75-7.95-12.42-7.95c-3.38,0-6.18,1.04-8.4,3.13
			c-2.22,2.09-3.33,4.7-3.33,7.85c0,2.52,0.76,4.69,2.29,6.51c0.76,0.86,1.88,1.84,3.35,2.93c1.47,1.09,3.32,2.3,5.54,3.63
			c6.59,3.84,11,7.32,13.22,10.44c2.25,3.15,3.38,7.27,3.38,12.37c0,6.63-2.19,11.99-6.56,16.1c-4.31,4.11-9.99,6.16-17.04,6.16
			c-5.7,0-10.52-1.23-14.46-3.68c-1.99-1.22-3.84-2.82-5.57-4.79c-1.72-1.97-3.38-4.36-4.97-7.18l8.65-5.86
			c2.35,4.14,4.65,6.99,6.91,8.55c2.25,1.56,5.18,2.33,8.8,2.33c4.01,0,7.15-1.06,9.42-3.18c2.27-2.12,3.4-5.13,3.4-9.04
			c0-2.68-0.83-4.95-2.48-6.81c-0.83-0.96-2.06-2.04-3.7-3.23c-1.64-1.19-3.72-2.53-6.24-4.03c-5.76-3.41-9.79-6.66-12.07-9.74
			c-2.19-3.08-3.28-6.94-3.28-11.58c0-6.19,2.15-11.33,6.46-15.4c4.31-4.11,9.74-6.16,16.3-6.16c4.27,0,7.92,0.86,10.93,2.58
			C101.09,540.58,104.26,543.52,107.5,547.66z"/>
		<path class="st3" d="M175.03,537.87h15.55c6.76,0,11.91,1.13,15.45,3.38c2.91,1.82,5.2,4.39,6.86,7.7
			c1.66,3.41,2.48,7.01,2.48,10.78c0,5.5-1.54,10.34-4.62,14.51c-4.57,6.2-11.78,9.29-21.62,9.29h-8.4l-3.83,31.06h-11.38
			L175.03,537.87z M185.07,548.45l-3.08,25h7.4c4.67,0,8.26-1.2,10.76-3.6c2.5-2.4,3.75-5.87,3.75-10.41
			c0-7.32-4.67-10.98-14.01-10.98H185.07z"/>
		<path class="st3" d="M353.97,574.74c0,8.75-2.32,16.68-6.96,23.8c-3.68,5.6-8.48,9.92-14.41,12.97
			c-5.93,3.05-12.49,4.57-19.68,4.57c-11.5,0-20.87-3.66-28.12-10.98c-7.25-7.35-10.88-16.86-10.88-28.52
			c0-11.63,3.84-21.23,11.53-28.82c7.72-7.62,17.46-11.43,29.22-11.43c11.76,0,21.25,3.53,28.47,10.58
			C350.36,553.93,353.97,563.21,353.97,574.74z M342.54,574.64c0-8.38-2.48-15.09-7.45-20.12c-4.97-5-11.64-7.5-20.03-7.5
			c-8.41,0-15.49,2.82-21.22,8.45c-5.67,5.63-8.5,12.67-8.5,21.12c0,8.35,2.63,15.25,7.9,20.72c5.27,5.43,11.93,8.15,19.98,8.15
			c8.38,0,15.35-2.93,20.92-8.79C339.74,590.85,342.54,583.52,342.54,574.64z"/>
		<path class="st3" d="M444.61,582.24l19.28,32.35h-12.03l-18.19-31.55h-4.12l-3.88,31.55h-11.38l9.44-76.72h15.06
			c4.9,0,8.8,0.45,11.68,1.34c2.85,0.83,5.33,2.35,7.45,4.57c4.01,4.11,6.01,9.41,6.01,15.9
			C463.94,571.58,457.49,579.09,444.61,582.24z M433.77,548.45l-2.98,24.65h5.22c3.84,0,6.71-0.36,8.6-1.09
			c2.02-0.73,3.71-1.97,5.07-3.73c1.85-2.45,2.78-5.33,2.78-8.65c0-3.88-1.12-6.71-3.35-8.5c-2.24-1.79-5.76-2.68-10.56-2.68H433.77
			z"/>
		<path class="st3" d="M553.98,548.45l-8.15,66.14h-11.38l8.15-66.14h-18.34l1.29-10.58h47.26l-1.29,10.58H553.98z"/>
	</g>
</g>
</svg>
