<?xml version="1.0" encoding="utf-8"?>
<!-- Generator: Adobe Illustrator 23.0.3, SVG Export Plug-In . SVG Version: 6.00 Build 0)  -->
<svg version="1.1" id="Layer_1" xmlns="http://www.w3.org/2000/svg" xmlns:xlink="http://www.w3.org/1999/xlink" x="0px" y="0px"
	 viewBox="0 0 719.59 517.69" style="enable-background:new 0 0 719.59 517.69;" xml:space="preserve" width="60px" fill="white">
<g id="LhatMc.tif">
	<g>
		<path d="M157.31,336.64c-8.26,10.42-11.42,22.41-19.49,31.34c-0.79,0.87-0.91,2.48-1.79,3.07c-5.85,3.94-6.71,9.61-6,15.98
			c1.14,10.14-4.2,18.99-5.8,28.59c-8.13,8.64-11.24,21.43-22.9,27.27c-2.74,1.38-5.29,4.07-6.76,6.79
			c-2.33,4.3-6.26,7.06-8.92,10.85c-2.54,3.62-3.78,8.12-6.02,11.99c-6,10.39-10.09,21.68-15.5,32.33c-1.23,2.43-2.79,4.83-4.7,6.73
			c-2.15,2.15-4.75,3.94-7.39,5.46c-1.23,0.71-3.04,0.57-4.58,0.57c-12.59,0.04-25.19,0.06-37.78,0.01
			c-6.36-0.03-11.28-5.66-9.17-11.7c1.19-3.4,1.71-6.57,1.63-9.95c-0.09-4.3,1.29-7.85,4.38-10.81c2.1-2.01,4.04-4.18,6.19-6.14
			c4.18-3.82,7.05-8.4,9.74-13.39c3.99-7.4,7.26-15.2,11.24-22.43c4.05-7.35,7.55-15.07,11.94-22.23c2.87-4.68,6.14-9.17,9.57-13.46
			c4.13-5.15,8.44-10.2,13.05-14.91c2.05-2.09,4.93-3.54,7.67-4.74c3.37-1.49,6.7-4.88,5.56-7.63c-4.56-10.97-1.26-21.37,2.24-31.5
			c2.65-7.66,5.46-14.6,2.02-22.94c-1.54-3.72-0.79-8.4-1.94-12.72c-1.6-6.04,1.75-12.06,2.53-18.16c0.03-0.26,0.5-0.42,0.65-0.69
			c2.2-3.93-0.95-7.11-1.58-10.63c-0.63-3.51,4.27-6.34,1.43-9.59c-3.37-3.86-0.04-8.44-2.34-12.68c-1.77-3.27-0.74-8.05-0.95-12.16
			c-0.03-0.64-0.25-1.57,0.07-1.88c4.87-4.57,3.93-12.15,8.8-16.76c1.35-1.28,1.57-3.16,3.96-4.16c3.71-1.53,2.61-6.5,4.51-9.59
			c0.05-0.08-1.16-1.04-1.87-1.46c-3.38-1.96-6.8-3.85-10.17-5.84c-4.61-2.72-9.44-11.59-6.93-15.9c2.7-4.63-0.2-6.78-1.76-9.6
			c-1.63-2.94-3.69-5.8-6.16-8.05c-2.32-2.11-2.92-4.91-1.91-6.87c2.81-5.49,1.49-11.15,1.72-16.72c0.23-5.48,0.18-10.98,0.01-16.46
			c-0.18-5.66,1.88-10.75,3.39-16.04c4.02-14.04,11.14-25.83,23.95-33.47c3.29-1.96,5.71-4.04,5.7-8.2c0-1.47,0.41-3.06,1.1-4.35
			c0.33-0.63,1.75-1.02,2.64-0.96c5.61,0.38,11.22,0.91,17.16,1.43c-2.09-8.24-4.68-15.46-5.78-23.22
			c-0.88-6.22-1.31-12.38-1.71-18.61c-0.26-3.94,0.68-7.5,2.73-10.52c3.82-5.6,8.22-10.79,12.21-16.29
			c2.17-2.99,5.34-0.92,7.94-1.93c3.9-1.52,8-2.78,12.13-3.42c10.48-1.62,19.03,3.57,27.25,8.91c8.15,5.29,17.41,18.52,20.45,28.12
			c0.45,1.45,0.5,3.03,0.71,4.55c0.27,1.9-0.26,2.97-2.5,2.94c-6.82-0.09-7.99,5.69-8.84,10.21c-0.69,3.68-2,8.26,1.4,11.86
			c0.34,0.36,0,1.29,0.29,1.8c1.51,2.68-3.97,3.91-1.38,6.71c0.35,0.38,0.73,0.75,1.12,1.12c1.26,1.2-2.79,4.78-1.78,6.16
			c3.47,4.74,8.46,4.69,4.8,10.81c-1.97,3.3-3.29,7.02-4.65,10.65c-0.41,1.1-0.42,2.79,0.14,3.74c6.09,10.08,11.32,20.7,18.48,30.12
			c0.66,0.87,2.02,1.54,3.12,1.66c2.23,0.26,4.52,0.21,6.77,0.04c3.32-0.24,6.38-0.06,8.45,3.1c0.28,0.43,1.07,0.51,1.57,0.82
			c3.61,2.16,8.53,1.85,11.07,6.05c2.19,3.63,4.5,7.2,6.87,10.71c0.7,1.05,1.76,1.88,2.72,2.75c2.1,1.91,4.24,3.78,6.37,5.67
			c3.32-2.24,7.07-2.02,10.83-2c0.47,0,1.03-0.73,1.39-1.25c4.76-7.17,12.66-7.12,19.82-8.18c3.08-0.45,5.43-1.13,7.34-3.45
			c3.03-3.68,6.74-6.12,11.35-7.69c2.77-0.95,5.19-3.29,7.43-5.36c8.61-7.91,16.56-6.56,23.64,3.34c2.51,3.52,4.65,7.12,6.45,10.94
			c2.92,6.19,1.31,9.46-4.44,12.64c-3.24,1.79-5.26,1.21-7.36-1.27c-1.43-1.69-2.61-1.99-4.78-0.59c-1.64,1.05-4.65,0.03-6.23,1.11
			c-1.89,1.29-2.78,0.25-4.35,0.09c-5.09-0.5-8.6,3.32-8.45,8.57c0.17,5.57-0.84,11.15,1.64,16.74c1.31,2.97,0.43,7.01,0.17,10.55
			c-0.2,2.74-1.72,4.57-4.83,4.58c-8.82,0.04-17.47,1.9-26.29,2.38c-6.1,0.32-12.37,1.64-18.59,1.43
			c-12.66-0.43-25.3-1.18-37.95-1.94c-1.41-0.08-2.76-1.09-4.13-1.68c-6.85-2.97-13.69-5.94-20.54-8.9
			c-3.75-1.63-5.22-1.36-7.29,1.47c-4.14,5.68-6.73,12.17-7.99,18.91c-0.63,3.37,1.48,7.17,1.58,10.78
			c0.08,2.83,1.15,3.74,3.38,5.42c4.43,3.33,8.71,6.71,13.6,9.44c5.64,3.15,6.68,9.57,8.09,14.95c1.64,6.31,4.37,11.3,9.03,15.72
			c5.17,4.91,10.48,9.64,13.37,16.71c1.13,2.74,3.38,5.95,6.99,7.8c2.72,1.4,4.19,5.18,6.31,7.84c2.92,3.65,5.96,7.21,8.88,10.86
			c5.05,6.3,10.37,12.41,14.98,19c4.22,6.03,9.45,11.02,14.46,16.28c4.25,4.46,3.7,10.72,5.68,16.05c0.1,0.28,0.05,0.64,0.01,0.96
			c-0.6,4.34,1.25,8.88-1.17,13.08c-2.72,4.73,2.71,8.51,1.41,13.47c-1.12,4.23,0.73,9.24-0.41,13.45
			c-3,11.01-1.22,22.12-1.72,33.16c-0.22,4.97,0.03,9.83,1.72,14.76c1.47,4.28-1.34,9.49,2.12,13.67
			c-1.32,5.47,1.83,10.37,1.96,15.66c0.16,6.59,2.68,9.45,9.48,11.95c2.5,0.92,5.07,2.23,7.01,4.02c2.43,2.22,4.51,4.35,8.23,3.77
			c0.94-0.14,2.36,0.82,3.08,1.66c1.3,1.53,4.37,2.45,2.81,5.27c-1.12,2.03-3.08,2.73-5.64,2.72c-20.99-0.13-41.98-0.06-62.97-0.08
			c-3.37,0-6.07-2.29-6.58-5.76c-0.75-5.21-1.13-10.47-2.05-15.64c-0.47-2.61-1.59-5.16-2.81-7.53c-0.7-1.36-2.11-2.45-3.36-3.44
			c-6.06-4.83-9.31-11.31-11.19-18.63c-1.59-6.18-4.34-11.97-4.24-18.76c0.03-2.54-0.38-6.66-1.89-8.68
			c-6.98-9.35-6.26-22.27-14.8-30.79c-1.19-1.19-2.21-3.2-2.2-4.82c0.02-7.86-4.38-14.42-6.18-21.74
			c-1.24-5.07-4.86-9.57-7.51-14.28c-4.24-7.56-8.8-14.57-16.79-19.21c-4.86-2.82-8.32-8.02-12.51-12.06
			c-0.58-0.56-1.84-0.95-2.5-0.69C161.6,335.83,159.24,331.86,157.31,336.64z"/>
		<path d="M463.61,473.5c-0.86,0.72-11.23-2-11.11-1.04c0.8,5.89-1.89,11.96,1.47,17.78c2,3.46-1.61,8.31,2.15,11.68
			c-2.32,1.85-1.16,4.66-1.97,6.81c-0.61,1.6-2.74,3.08-4.5,3.66c-2.04,0.66-4.42,0.33-6.65,0.33c-25.51,0.01-51.02,0.02-76.54,0
			c-3.09,0-6.22,0.44-8.93-1.86c-1-0.86-3.31-0.63-3.79-1.55c-0.66-1.26-0.81-3.63-0.03-4.65c1.61-2.13,3.71-4.46,6.1-5.3
			c3.69-1.31,7.83-1.32,11.72-2.17c2.32-0.51,5.12-0.95,6.65-2.48c6.08-6.09,14.19-7.88,21.65-11.02
			c3.02-1.26,13.44-9.84,13.79-13.59c0.33-3.51-5.53,1-7.03-1.78c0.01-0.08-3.29-3.87-3.28-3.96c2.06-2.06,5.92-7.97,8.04-9.96
			c3.3-3.08,3.41-6.99,4.91-11.05c1.54-4.18,1.19-7.56,0.13-11.74c-1.19-4.7,0.93-24.31,3.05-31.02c0.81-2.55,1.23-5.39,2.63-7.59
			c3.45-5.43,5.44-11.59,5.36-18.02c-0.11-8.89,2.55-17.68,4.15-26.51c3.36-2.27-0.65-7.23,3.36-9.26
			c-0.67-4.64,2.34-6.76,5.83-8.63c5.03-2.7,9.9-5.7,15.02-8.17c8.01-3.87,15.18-9.12,21.96-14.62c6.96-5.65,14.95-9.36,22.21-14.31
			c7.77-5.3,17.09-7.54,24.59-13.24c1.17-0.89,3.14-0.97,3.94-2.03c5.17-6.87,13.26-8.36,20.4-11.66c1.7-0.79,3.18-2.55,4.18-4.23
			c2.46-4.15,4.16-8.6,3.95-13.55c-0.27-6.68,1.48-13.37,4.98-19.07c5.04-8.18,5.4-17.41,4.56-26.63c-0.2-2.17-1.75-5.09-3.35-6.56
			c-5.04-4.6-9.01-10.21-15.18-13.83c-4.97-2.93-7.53-8.8-10.43-13.91c-1.94-3.41-4.4-6.56-6.05-10.09
			c-1.64-3.53-7.14-2.79-7.51-7.37c-3.15-1.13-24.72-0.9-25.45-1.01c-7.99-1.32-15.56,1.96-23.43,2.07
			c-4.29,0.06-8.44-0.23-12.87,1.59c-5.59,2.29-11.55-1.15-17.2-2.49c-2.09-0.5-4.16-0.96-6.28-1.08
			c-6.15-0.34-11.84-2.22-17.41-4.78c-11.39-5.21-20.77-2.85-33.05-5.99c-0.58-0.14-18.39-2.2-18.55-2.54
			c-3.11-6.8,7.25-12.31,2.54-15.64c-4.93,3.99-13.59-1.07-18.89,3.51c-1.68,1.44-5.64,0.01-8.52,0.28c-3.33,0.3-7.05-1.53-10,1.76
			c-0.25,0.28-2.62-1.14-3.75-2.06c-0.23-0.19,0.5-1.82,1.03-2.62c1.8-2.67,5.64-3.17,6.86-6.7c0.35-1.01,2.48-1.84,3.87-1.95
			c1.93-0.16,3.53-0.7,2.7-2.62c-0.78-1.8-2.14-4.06-4.9-2.9c-16.77,7.12-9.26-1.71-7.59-2.17c1.61-0.44,3.49-0.39,2.81-2.56
			c-0.42-1.33-1.81-2.97-3.07-3.3c-4.43-1.17-8.99-1.84-13.6-2.72c-0.35-5.01,5.24-1.89,7.49-4.65c-3.65-0.42-6.72-0.66-9.74-1.22
			c-0.79-0.14-1.39-1.29-2.07-1.97c0.67-0.39,1.3-1.02,2.02-1.13c1.26-0.19,2.6,0.08,3.87-0.08c2.27-0.28,1.19-1.1,0.49-2.27
			c-0.49-0.81-0.06-2.15-0.04-3.25c0.88,0.05,1.95-0.2,2.58,0.23c3.12,2.09,12.52,4.55,13.21,5.46c2.35,3.1,30.53,8.1,33.14,11.43
			c0.2,0.25,11.6,3.69,17.53,4.14c4.06,0.3,7.94,3.22,11.98,3.46c4.32,0.26,6.9,3.98,10.96,4.13c2.54,5.09,8.19,4.1,12.25,5.44
			c6.07,1.99,12.91,1.63,19.43,2.3c6.19,0.63,12.39,1.22,18.57,1.96c2.49,0.3,18.07-0.2,20.33-0.87c3.94-1.17,7.89-2.33,12.46-3.68
			c-4.01-2.08-1.7-2.16-7.02-4.92c-2.44-0.72-5.24-6.34,3.54-2.01c5.38,2.66,11.25-0.2,16.06,3.57c0.73,0.57,2.97-0.32,4.27-1
			c6.86-3.62,13.65-7.34,20.42-11.12c1.28-0.71,1.86-2.23,1.45-3.64c-1.23-4.23-4.29-6.99-7.31-8.85
			c-6.05-3.74-5.95-8.44-3.99-13.99c0.79-2.24,3.21-5.24,2.48-6.48c-3.48-5.97,0.37-12.63-2.31-18.3c-0.98-2.08-0.64-2.86,0.1-4.82
			c3.97-10.43,6.67-14.15,19.91-18.87c3.66-1.3,7.69-2.07,10.83-4.17c3.7-2.46,6.99-1.83,10.59-0.7c2.45,0.77,4.83,1.8,7.33,2.33
			c0.63,0.13,2.4-2.26,2.19,0.07c-0.3,3.4,2.26,3.59,3.63,5.29c3.14,3.95,5.46,8.62,7.65,13.22c1.42,2.97,2.96,5.9,2.66,9.64
			c-0.23,2.9,2.56,6.67,1.49,8.73c-2.92,5.53,3.09,6.97,3.93,10.63c0.19,0.83,3.28,0.93,4.98,1.5c1.04,0.35,2.9,1.28,2.85,1.4
			c-1.6,4.44,4.58,4.16,4.7,7.77c0.03,0.87,2.92,2.18,4.58,2.36c8.82,0.91,17.15,3.89,25.34,6.75
			c13.21,4.62,19.78,15.75,23.55,28.49c2.54,8.58,4.54,17.33,4.02,26.47c-0.33,5.79,0.94,11.85-0.31,17.38
			c-1.7,7.53-1.17,15.01-1.88,22.49c-0.34,3.57-1.75,7.05-1.89,10.84c-0.13,3.61,1.88,7.73-1.74,10.91
			c-0.29,0.26,0.18,1.87,0.72,2.47c1.24,1.36,1.33,2.33,0.36,4.08c-4.67,8.45-4.65,16.97,0.01,25.53c1.31,2.42,0.82,5.8,4.61,6.78
			c0.93,0.24,1.87,2.52,1.89,3.88c0.09,6.85,1.74,13.31,3.92,19.72c0.71,2.11-4.16,3.87-0.66,6.42c0.74,7.92,4.63,14.94,7.23,22.22
			c2.12,5.97,0.93,10.35-2.08,14.52c-3.24,4.49-3.88,37.01-1.02,39.14c2.22,1.66-0.79,11.07,3.55,11.47
			c1.24,0.11,2.54,2.15,2.87,4.47c1.41,9.75,14.79,56.78,17.17,60.76c3.74,6.25,4.64,13.34,4.02,20.61
			c-0.19,2.24-0.24,4.55,0.08,6.76c0.11,0.75,1.57,1.91,2.37,1.87c4.46-0.2,6.89,1.11,7.16,4.62c0.24,3.22,1.11,7.02-0.25,9.52
			c-1.33,2.46-0.23,3.68,0.33,5.33c2.31,6.81,3.86,13.93,8.79,19.65c1.48,1.72,2.57,4.32,2.63,6.56c0.06,2.61-0.75,5.51-2.1,7.73
			c-0.62,1.01-3.44,0.9-5.26,0.92c-8.72,0.08-17.43,0.06-26.16,0.02c-1.74-0.01-4.6,0.37-1.5-2.57c-1.71-5.45-2.46-11.11-3.74-16.63
			c-0.94-4.04-3.38-7.53-7.48-9.97c-8.09-4.82,1.97-13.49-3.84-18.37c-0.61-0.52-10.74-0.96-10.91-1.82
			c-0.18-0.93-16.92-29.3-19.15-31.95c-1.17-1.39-1.85-3.18-3.07-4.51c-1.19-1.29-2.74-3.07-4.21-3.14
			c-3.85-0.19-5.66-2.87-7.28-5.38c-3.99-6.16-7.93-12.29-12.45-18.14c-4.34-5.62-6.67-12.67-8.91-19.49
			c-1.59-4.84-3.22-9.56-5.45-14.23c-3.2-6.67-6.97-12.22-13.76-15.48c-1.1-0.53-1.85-1.77-3.11-3.03
			c-3.07,3.07-6.13,6.18-9.24,9.23c-9.36,9.2-19.31,17.88-30.59,24.47c-11.32,6.63-23.13,12.55-36.44,14.99
			c-4.45,0.82-9.37,2.12-13.15,5.66c-1.89,1.77-4.61,3.3-7.12,3.61c-4.22,0.52-5.44,2.58-5.21,6.35c0.08,1.28,0.37,2.74-0.1,3.83
			c-0.35,0.8-7.68,32.84-7.49,33.88C472.36,452.35,466.1,471.39,463.61,473.5z"/>
	</g>
</g>
</svg>
