<?xml version="1.0" encoding="utf-8"?>
<!-- Generator: Adobe Illustrator 23.0.3, SVG Export Plug-In . SVG Version: 6.00 Build 0)  -->
<svg version="1.1" id="Layer_1" xmlns="http://www.w3.org/2000/svg" xmlns:xlink="http://www.w3.org/1999/xlink" x="0px" y="0px"
	 viewBox="0 0 167.37 201.28" style="enable-background:new 0 0 167.37 201.28;" xml:space="preserve" width="60px" height="60px" fill="white">
<g id="_x37_1FBRo.tif">
	<g>
		<path d="M71.12,146.25c-0.55-1.81,0.68-3.83-0.97-5.65c-0.51-0.57,0.05-2.16,0.22-3.26c0.14-0.92,0.6-1.81,0.63-2.72
			c0.15-4.05-0.1-4.26-4.4-4.45c-1.35-2.05-2.08-4.23-1.35-6.8c0.89-0.14,1.81-0.28,2.93-0.45c-0.85-0.9-1.5-1.6-2.01-2.16
			c0.98-3.03,1.57-6.15,2.96-8.85c1.56-3.05,0.52-6.11,0.91-9.13c-1.68-1.43-0.9-3.36-0.97-5.09c-0.11-2.66-0.23-5.35,0.02-7.99
			c0.31-3.24-0.87-6.01-2.58-8.43c-1.97-2.8-3.12-5.57-3.66-9.05c-0.64-4.07-1.83-8.34-5.43-11.22c-0.42-0.34-0.5-1.11-0.72-1.63
			c-9.51-0.6-18.56-2.85-27.07-7.13c-1.8-0.91-3.52-2.02-5.18-3.17c-3.51-2.42-7.01-4.87-10.42-7.43c-3.24-2.43-3.37-3.06-1.99-7.33
			c1.09-3.37,2.05-6.82,3.52-10.03c0.8-1.75,0.65-3-0.76-3.75c-2.3-1.22-1.43-4.97-4.6-5.38c-2.58-0.33-3.99-2.51-5.84-3.98
			C2.97,10.07,1.57,9,0.25,7.83C0,7.61,0.12,6.97,0,5.89c5.08,2.57,9.85,5,15.58,4.17c1.34-0.69,1.9-2.89,4.53-2.94
			c-0.41,1.35-0.88,2.42-1.04,3.54c-0.17,1.14-0.1,2.33-0.02,3.49c0.16,2.55,0.24,5.12,3.42,6.07c0.7,0.21,1.45,0.99,1.76,1.7
			c1.97,4.44,6.97,6.33,9.01,10.76c0.16,0.36,1.77,2.14,3.44,0.58c0.69-0.65,2.15-0.1,2.98,1c1.19,1.58,2.88,2.81,4.78,2.83
			c2.86,0.02,5.89,0.9,8.58-0.91c2.63-1.77,5.52-2.32,8.67-2.03c1.82,0.17,3.67,0.11,5.49-0.01c0.73-0.05,1.64-0.31,2.12-0.82
			c0.89-0.93,1.84-1.1,3.05-1.2c1.52-0.13,3.01-0.67,4.91-1.12c-1.51-2.8-2.87-5.33-4.22-7.86c-0.6-1.12-1.21-2.17-1.05-3.59
			c0.2-1.64,0.19-3.34,0.02-4.99c-0.33-3.15,0.62-5.94,2.02-8.68c1.89-3.69,7.87-6.92,11.88-5.55c2.34,0.8,4.96,2.14,6.15,4.89
			c0.99,2.31,1.99,4.56,2.01,7.18c0.05,6.83,0.1,6.83-2.43,12.67c-1.75,4.05,0.07,7.34,4.51,8.09c0.48,0.08,1.19-0.14,1.43,0.12
			c1.41,1.55,4.31,1.19,4.86,3.79c2.31-0.08,4.4,0.46,6.14,2.08c0.4,0.37,1.17,0.44,1.42,0.86c2.93,4.88,8.12,6.97,12.5,10
			c2.01,1.39,4.63,1.72,5.64,4.55c0.34,0.96,1.89,1.55,2.98,2.16c2.84,1.58,5.77,3,8.57,4.63c3.5,2.04,6.81,4.43,10.4,6.28
			c2.36,1.22,5.57,1.03,7.39,2.98c1.25,1.34,2.39,0.48,3.63,0.53c1.95,0.08,3.9,0.01,6.25,0.01c-0.85,2.21-1.75,4.1-3.67,3.89
			c-2.95-0.33-4.17,1.75-4.36,3.49c-0.29,2.62-1.69,3.82-3.68,4.35c-1.38,0.37-1.6,1.27-2.02,2.17c-1.11,2.37-2.09,4.8-3.2,7.17
			c-3.87,8.23-7.69,16.48-11.7,24.64c-1.1,2.24-2.69,4.25-4.25,6.22c-0.43,0.54-1.53,0.54-2.79,0.93
			c0.91-1.71,15.2-33.21,17.31-39.66c0.63-1.93,0.55-1.96-0.83-4.36c-3.1,0.88-2.73,7.23-8.26,4.55c-1.47-1.47-3.54-3.41-5.46-5.49
			c-1.77-1.92-3.81-3.33-6.26-4.23c-5.2-1.93-10.02-4.79-15.37-6.31c-0.83-0.24-1.85-0.17-2.67,0.1c-0.38,0.12-1.27,0.47-0.6,1.75
			c1.24,2.36,0.64,4.72-1.66,6.43c-0.53,0.39-1,0.89-1.41,1.41c-0.82,1.03-0.82,2.08,0.13,3.05c1.05,1.07,2.12,2.12,3.4,3.4
			c0,1.08-0.17,2.41,0.03,3.68c0.91,5.87-2.03,10.42-5.08,14.89c-0.61,0.89-1.88,1.44-2.95,1.9c-2.13,0.92-4.57,0.77-6.71,1.94
			c-0.69,0.38-1.96-0.32-3.12-0.55c-1.27,1.58-1.21,3.65-1.19,5.76c0.05,7,0.05,14-0.01,20.99c-0.02,1.89,0.51,3.85-0.9,5.65
			c-0.46,0.59-0.24,2,0.1,2.86c1.98,4.97,3.94,9.93,3.82,15.41c1.74,2.34,0.34,5.17,1.08,7.56c1.64,5.29,1.73,11.21,6.19,15.4
			c-2.03,1.82-3.86,3.46-5.99,5.38c3.6,1.59,3.62,4.61,4.44,7.19c-3.95,2.49-8.65,4.06-12.78,6.83c-2.53,1.7-5.76,2.75-8.76,0.17
			c-0.09-3.86,0.18-4.26,3.52-5.57c0.71-0.28,1.43-0.69,1.99-1.21c1.47-1.36,2.85-2.81,4.62-4.59c-0.75-3.41-1.03-7.31-2.51-10.7
			c-2.03-4.66-3.9-9.43-7.16-13.58c-1.91-2.44-2.55-5.9-3.61-8.95c-0.51-1.47-0.48-3.14-1.09-4.55
			C73.35,149.14,72.24,147.91,71.12,146.25z"/>
	</g>
</g>
</svg>
